<svg width="226" height="44" viewBox="0 0 226 44" fill="none" xmlns="http://www.w3.org/2000/svg">
<path d="M92 0H0V44H92V0Z" fill="#107BB6"/>
<path d="M14.71 26.23C14.6667 25.4906 14.6667 24.7494 14.71 24.01L15.71 12.01H19.56L18.56 24.11C18.33 26.73 19.34 28.59 21.9 28.59C24.46 28.59 25.9 26.69 26.14 24.37L27.17 12H31L30 24.22C29.58 28.93 26.52 32.45 21.57 32.45C17.72 32.45 15.23 29.9 14.76 26.23" fill="white"/>
<path d="M31.9 22.17C32.41 16.41 36.22 11.64 42.79 11.64C44.5887 11.6121 46.3534 12.1317 47.85 13.13L47.41 17.89C46.272 16.2805 44.3763 15.382 42.41 15.52C38.31 15.52 36.07 18.42 35.75 22.09C35.43 25.76 37.24 28.57 41.21 28.57C43.3104 28.576 45.3113 27.6758 46.7 26.1L46.3 31C44.6685 31.9529 42.8191 32.4695 40.93 32.5C34.42 32.5 31.44 27.57 31.93 22.18" fill="white"/>
<path d="M50.93 12H54.77L53.36 28.3H58.87C59.25 28.3 60.57 28.3 60.87 28.3C60.87 28.5 60.52 32.07 60.52 32.07H49.18L50.93 12Z" fill="white"/>
<path d="M70.93 19.49C71.0486 19.218 71.1456 18.9372 71.22 18.65H71.28C71.3033 18.9374 71.3535 19.222 71.43 19.5C71.64 20.41 73.13 25.5 73.13 25.5H68.28C68.28 25.5 70.88 19.65 70.93 19.5V19.49ZM71.93 11.11H71.66L61.14 32H65.22L66.7 28.82H74.1L75 32H79.1L71.93 11.11Z" fill="white"/>
<path d="M100.06 5.41H102.68V16.16H108.76V18.35H100.06V5.41Z" fill="currentColor"/>
<path d="M115.51 17.32C114.909 18.2173 113.851 18.6974 112.78 18.56C110.88 18.56 109.54 17.56 109.54 15.72C109.54 13.72 111.2 13.03 113.27 12.72C114.81 12.5 115.51 12.37 115.51 11.67C115.51 10.97 114.99 10.56 113.96 10.56C112.93 10.56 112.24 10.98 112.16 11.87H109.97C110.05 10.24 111.26 8.81 113.97 8.81C116.68 8.81 117.88 10.06 117.88 12.23V17C117.88 17.71 117.99 18.12 118.21 18.29V18.38H115.8C115.622 18.054 115.523 17.6911 115.51 17.32ZM115.51 15.07V13.68C114.962 13.9334 114.384 14.1149 113.79 14.22C112.5 14.51 111.87 14.8 111.87 15.67C111.87 16.54 112.45 16.84 113.32 16.84C114.75 16.84 115.53 16 115.53 15.07H115.51Z" fill="currentColor"/>
<path d="M118.59 9.06H119.87V6.17H122.28V9.06H123.87V10.69H122.28V15.61C122.243 15.8643 122.328 16.1212 122.509 16.3039C122.689 16.4866 122.945 16.574 123.2 16.54H123.92V18.35C123.92 18.35 123.36 18.35 122.39 18.35C121.19 18.35 119.87 17.87 119.87 16.12V10.69H118.59V9.06Z" fill="currentColor"/>
<path d="M125.05 5.41H127.51V7.62H125.05V5.41ZM125.05 9.06H127.51V18.35H125.05V9.06Z" fill="currentColor"/>
<path d="M131.49 10.33C132.047 9.34541 133.11 8.75772 134.24 8.81C135.139 8.80398 136 9.1767 136.61 9.8369C137.221 10.4971 137.526 11.3838 137.45 12.28V18.35H135V12.65C135.047 12.2022 134.896 11.756 134.587 11.429C134.277 11.1021 133.84 10.927 133.39 10.95C132.85 10.9613 132.338 11.1976 131.98 11.602C131.621 12.0063 131.447 12.542 131.5 13.08V18.35H129.04V9.06H131.45L131.49 10.33Z" fill="currentColor"/>
<path d="M138.54 13.71C138.54 11.0314 140.711 8.86 143.39 8.86C146.069 8.86 148.24 11.0314 148.24 13.71C148.24 16.3886 146.069 18.56 143.39 18.56C140.711 18.56 138.54 16.3886 138.54 13.71ZM145.74 13.71C145.74 11.9 144.89 10.71 143.39 10.71C141.89 10.71 141.04 11.94 141.04 13.71C141.04 15.48 141.87 16.71 143.39 16.71C144.91 16.71 145.74 15.52 145.74 13.71Z" fill="currentColor"/>
<path d="M152.62 5.41H158.3C159.548 5.32902 160.775 5.76681 161.69 6.62C162.447 7.41331 162.86 8.47352 162.84 9.57C162.84 12.01 161.23 13.66 158.52 13.66H155.33V18.35H152.62V5.41ZM155.33 11.52H158.05C158.597 11.5953 159.148 11.4228 159.554 11.0494C159.961 10.6761 160.179 10.1409 160.15 9.59C160.183 9.04588 159.969 8.51591 159.567 8.1473C159.166 7.77869 158.619 7.6107 158.08 7.69H155.33V11.52Z" fill="currentColor"/>
<path d="M163.17 13.71C163.17 11.0314 165.341 8.86 168.02 8.86C170.699 8.86 172.87 11.0314 172.87 13.71C172.87 16.3886 170.699 18.56 168.02 18.56C165.341 18.56 163.17 16.3886 163.17 13.71ZM170.37 13.71C170.37 11.9 169.52 10.71 168.02 10.71C166.52 10.71 165.67 11.94 165.67 13.71C165.67 15.48 166.5 16.71 168.02 16.71C169.54 16.71 170.37 15.52 170.37 13.71Z" fill="currentColor"/>
<path d="M174.05 5.41H176.51V18.35H174.05V5.41Z" fill="currentColor"/>
<path d="M178.1 5.41H180.56V7.62H178.1V5.41ZM178.1 9.06H180.56V18.35H178.1V9.06Z" fill="currentColor"/>
<path d="M181.7 13.71C181.61 12.4321 182.06 11.1752 182.94 10.2441C183.82 9.31297 185.049 8.79288 186.33 8.81001C188.417 8.64241 190.27 10.1356 190.55 12.21H188.14C188.006 11.3778 187.283 10.7693 186.44 10.78C184.96 10.78 184.2 11.92 184.2 13.71C184.2 15.5 184.9 16.65 186.41 16.65C187.359 16.7249 188.19 16.0188 188.27 15.07H190.64C190.46 17.2013 188.592 18.7871 186.46 18.62C185.159 18.6621 183.9 18.153 182.994 17.2182C182.087 16.2833 181.618 15.0094 181.7 13.71Z" fill="currentColor"/>
<path d="M191.54 19.45H192.41C193.41 19.45 193.79 18.94 193.79 18.18C193.692 17.3101 193.452 16.4622 193.08 15.67L190.59 9.06H193.17L194.55 13.24C194.84 14.09 195.15 15.24 195.15 15.24C195.15 15.24 195.41 14.06 195.7 13.24L197 9.06H199.48L196.24 18.58C195.53 20.65 194.84 21.39 192.96 21.39H191.51L191.54 19.45Z" fill="currentColor"/>
<path d="M202.93 15C202.93 13.15 204.11 12 205.79 11.14C205.096 10.42 204.705 9.46025 204.7 8.46C204.713 7.60607 205.082 6.79638 205.718 6.22665C206.354 5.65691 207.2 5.37897 208.05 5.46C210.05 5.46 211.44 6.65 211.44 8.46C211.44 10.05 210.51 10.84 209.12 11.57L210.84 13.79C211.097 13.118 211.265 12.4154 211.34 11.7H213.53C213.444 13.1121 213.022 14.4834 212.3 15.7L214.3 18.34H211.3L210.64 17.49C209.642 18.2205 208.437 18.613 207.2 18.61C204.4 18.62 202.93 17 202.93 15ZM209.39 15.81L207 12.74C206.128 13.1317 205.554 13.9847 205.52 14.94C205.521 15.402 205.715 15.8425 206.055 16.1557C206.395 16.4688 206.849 16.6262 207.31 16.59C208.073 16.5977 208.812 16.3275 209.39 15.83V15.81ZM208 10.19C208.661 9.88761 209.083 9.22653 209.08 8.5C209.08 7.94771 208.632 7.5 208.08 7.5C207.806 7.49966 207.544 7.61185 207.355 7.81034C207.166 8.00884 207.066 8.27623 207.08 8.55C207.164 9.19489 207.493 9.78251 208 10.19Z" fill="currentColor"/>
<path d="M100.06 24.83H105.74C106.983 24.7383 108.208 25.1613 109.13 26C109.9 26.8056 110.314 27.8863 110.28 29C110.28 31.44 108.67 33.09 105.96 33.09H102.77V37.78H100.06V24.83ZM102.77 30.94H105.49C106.037 31.0153 106.588 30.8428 106.994 30.4694C107.401 30.0961 107.619 29.5609 107.59 29.01C107.623 28.4659 107.409 27.9359 107.007 27.5673C106.606 27.1987 106.059 27.0307 105.52 27.11H102.77V30.94Z" fill="currentColor"/>
<path d="M110.61 33.13C110.621 30.4541 112.797 28.2927 115.473 28.3C118.149 28.3074 120.314 30.4807 120.31 33.1566C120.306 35.8326 118.136 38 115.46 38C114.159 38.0365 112.901 37.5345 111.983 36.6125C111.065 35.6906 110.568 34.4305 110.61 33.13ZM117.81 33.13C117.81 31.32 116.96 30.13 115.46 30.13C113.96 30.13 113.11 31.36 113.11 33.13C113.11 34.9 113.94 36.13 115.46 36.13C116.98 36.13 117.81 34.94 117.81 33.13Z" fill="currentColor"/>
<path d="M121.49 24.83H124V37.77H121.54L121.49 24.83Z" fill="currentColor"/>
<path d="M125.54 24.83H128V27H125.54V24.83ZM125.54 28.48H128V37.77H125.54V28.48Z" fill="currentColor"/>
<path d="M128.86 28.48H130.14V25.59H132.55V28.48H134.14V30.11H132.55V35C132.513 35.2543 132.598 35.5112 132.779 35.6939C132.959 35.8766 133.215 35.964 133.47 35.93H134.19V37.74C134.19 37.74 133.63 37.74 132.66 37.74C131.46 37.74 130.14 37.26 130.14 35.51V30.11H128.86V28.48Z" fill="currentColor"/>
<path d="M135.32 24.83H137.78V27H135.32V24.83ZM135.32 28.48H137.78V37.77H135.32V28.48Z" fill="currentColor"/>
<path d="M138.92 33.13C138.83 31.8521 139.28 30.5952 140.16 29.6641C141.04 28.733 142.269 28.2129 143.55 28.23C145.636 28.0624 147.49 29.5556 147.77 31.63H145.36C145.222 30.8 144.501 30.1936 143.66 30.2C142.18 30.2 141.42 31.34 141.42 33.13C141.42 34.92 142.12 36.07 143.62 36.07C144.571 36.1451 145.405 35.4403 145.49 34.49H147.86C147.659 36.6052 145.798 38.1679 143.68 38C142.386 38.0412 141.134 37.5375 140.229 36.6116C139.324 35.6858 138.849 34.4227 138.92 33.13Z" fill="currentColor"/>
<path d="M148.42 34.76H150.7C150.83 35.736 151.723 36.4241 152.7 36.3C153.79 36.3 154.4 35.88 154.4 35.23C154.4 34.35 153.22 34.23 151.96 34C150.29 33.68 148.66 33.22 148.66 31.2C148.66 29.18 150.33 28.2 152.45 28.2C154.89 28.2 156.25 29.41 156.45 31.28H154.22C154.11 30.28 153.48 29.92 152.43 29.92C151.38 29.92 150.84 30.28 150.84 30.92C150.84 31.56 152.07 31.79 153.39 32.06C154.95 32.39 156.66 32.82 156.66 34.99C156.66 36.86 155.07 37.9901 152.76 37.9901C150.07 38 148.57 36.74 148.42 34.76Z" fill="currentColor"/>
<path d="M161 24.83H163.62V37.77H161V24.83Z" fill="currentColor"/>
<path d="M167.88 29.75H167.93C168.487 28.7654 169.55 28.1777 170.68 28.23C171.579 28.224 172.44 28.5967 173.05 29.2569C173.661 29.9171 173.966 30.8038 173.89 31.7V37.77H171.43V32.07C171.477 31.6222 171.326 31.176 171.017 30.849C170.707 30.5221 170.27 30.347 169.82 30.37C169.28 30.3813 168.768 30.6176 168.41 31.022C168.051 31.4263 167.877 31.962 167.93 32.5V37.77H165.47V28.48H167.88V29.75Z" fill="currentColor"/>
<path d="M175.44 24.83H177.9V27H175.44V24.83ZM175.44 28.48H177.9V37.77H175.44V28.48Z" fill="currentColor"/>
<path d="M178.75 28.48H180V25.59H182.41V28.48H184V30.11H182.41V35C182.373 35.2543 182.458 35.5112 182.639 35.6939C182.819 35.8766 183.075 35.964 183.33 35.93H184.05V37.74C184.05 37.74 183.49 37.74 182.51 37.74C181.32 37.74 180 37.26 180 35.51V30.11H178.71L178.75 28.48Z" fill="currentColor"/>
<path d="M185.22 24.83H187.68V27H185.22V24.83ZM185.22 28.48H187.68V37.77H185.22V28.48Z" fill="currentColor"/>
<path d="M194.83 36.74C194.227 37.6591 193.149 38.1493 192.06 38C190.16 38 188.82 37 188.82 35.16C188.82 33.16 190.48 32.47 192.54 32.16C194.08 31.94 194.79 31.81 194.79 31.16C194.79 30.51 194.26 30 193.23 30C192.2 30 191.51 30.42 191.44 31.31H189.25C189.32 29.68 190.54 28.25 193.25 28.25C195.96 28.25 197.16 29.5 197.16 31.67V36.39C197.16 37.1 197.27 37.51 197.49 37.68V37.77H195.11C194.945 37.4502 194.85 37.0992 194.83 36.74ZM194.83 34.49V33.1C194.284 33.3567 193.705 33.5383 193.11 33.64C191.83 33.93 191.2 34.22 191.2 35.09C191.2 35.96 191.77 36.26 192.64 36.26C194.06 36.26 194.84 35.4 194.84 34.49H194.83Z" fill="currentColor"/>
<path d="M197.9 28.48H199.19V25.59H201.59V28.48H203.19V30.11H201.59V35C201.553 35.2563 201.638 35.5153 201.822 35.6984C202.005 35.8816 202.264 35.9675 202.52 35.93H203.24V37.74C203.24 37.74 202.68 37.74 201.7 37.74C200.51 37.74 199.19 37.26 199.19 35.51V30.11H197.9V28.48Z" fill="currentColor"/>
<path d="M204.36 24.83H206.83V27H204.36V24.83ZM204.36 28.48H206.83V37.77H204.36V28.48Z" fill="currentColor"/>
<path d="M207.54 28.48H210L211.48 33.3C211.75 34.18 211.9 34.78 211.9 34.78C211.9 34.78 212.03 34.18 212.3 33.3L213.82 28.48H216.28L213.04 37.77H210.69L207.54 28.48Z" fill="currentColor"/>
<path d="M216.29 33.12C216.21 31.854 216.656 30.6113 217.523 29.6855C218.391 28.7596 219.602 28.233 220.87 28.23C223.87 28.23 225.45 30.51 225.45 33.82H218.72C218.717 34.4449 218.967 35.0444 219.414 35.4815C219.861 35.9187 220.465 36.1562 221.09 36.14C221.876 36.21 222.611 35.742 222.88 35H225.3C224.819 36.8863 223.051 38.1527 221.11 38C219.802 38.0652 218.529 37.5698 217.608 36.6382C216.688 35.7066 216.209 34.4269 216.29 33.12ZM218.75 32.12H222.88C222.88 31.0154 221.985 30.12 220.88 30.12C219.74 30.0863 218.788 30.9805 218.75 32.12Z" fill="currentColor"/>
</svg>
