<?xml version="1.0" encoding="UTF-8"?>
<svg width="226px" height="44px" viewBox="0 0 226 44" version="1.1" xmlns="http://www.w3.org/2000/svg" xmlns:xlink="http://www.w3.org/1999/xlink">
    <title>Group</title>
    <g id="Page-1" stroke="none" stroke-width="1" fill="none" fill-rule="evenodd">
        <g id="Group" fill-rule="nonzero">
            <g id="logo-blue-boxed">
                <rect id="Rectangle" fill="#107BB6" x="0" y="0" width="92" height="44"></rect>
                <path d="M14.71,26.23 C14.6667315,25.4906325 14.6667315,24.7493675 14.71,24.01 L15.71,12.01 L19.56,12.01 L18.56,24.11 C18.33,26.73 19.34,28.59 21.9,28.59 C24.46,28.59 25.9,26.69 26.14,24.37 L27.17,12 L31,12 L30,24.22 C29.58,28.93 26.52,32.45 21.57,32.45 C17.72,32.45 15.23,29.9 14.76,26.23" id="Path" fill="#FFFFFF"></path>
                <path d="M31.9,22.17 C32.41,16.41 36.22,11.64 42.79,11.64 C44.5887374,11.6120573 46.3534545,12.1317071 47.85,13.13 L47.41,17.89 C46.2719944,16.2805452 44.3763048,15.3819883 42.41,15.52 C38.31,15.52 36.07,18.42 35.75,22.09 C35.43,25.76 37.24,28.57 41.21,28.57 C43.3103756,28.5759971 45.3112772,27.6757737 46.7,26.1 L46.3,31 C44.6685246,31.9528789 42.8191158,32.4694735 40.93,32.5 C34.42,32.5 31.44,27.57 31.93,22.18" id="Path" fill="#FFFFFF"></path>
                <path d="M50.93,12 L54.77,12 L53.36,28.3 L58.87,28.3 C59.25,28.3 60.57,28.3 60.87,28.3 C60.87,28.5 60.52,32.07 60.52,32.07 L49.18,32.07 L50.93,12 Z" id="Path" fill="#FFFFFF"></path>
                <path d="M70.93,19.49 C71.0485706,19.2180481 71.1455371,18.9371796 71.22,18.65 L71.28,18.65 C71.3033072,18.9374009 71.3535273,19.2219812 71.43,19.5 C71.64,20.41 73.13,25.5 73.13,25.5 L68.28,25.5 C68.28,25.5 70.88,19.65 70.93,19.5 M71.93,11.11 L71.66,11.11 L61.14,32 L65.22,32 L66.7,28.82 L74.1,28.82 L75,32 L79.1,32 L71.93,11.11 Z" id="Shape" fill="#FFFFFF"></path>
            </g>
            <polygon id="Path" fill="#FFFFFF" points="100.06 5.41 102.68 5.41 102.68 16.16 108.76 16.16 108.76 18.35 100.06 18.35"></polygon>
            <path d="M115.51,17.32 L115.51,17.32 C114.908538,18.2173098 113.851461,18.6974475 112.78,18.56 C110.88,18.56 109.54,17.56 109.54,15.72 C109.54,13.72 111.2,13.03 113.27,12.72 C114.81,12.5 115.51,12.37 115.51,11.67 C115.51,10.97 114.99,10.56 113.96,10.56 C112.93,10.56 112.24,10.98 112.16,11.87 L109.97,11.87 C110.05,10.24 111.26,8.81 113.97,8.81 C116.68,8.81 117.88,10.06 117.88,12.23 L117.88,17 C117.88,17.71 117.99,18.12 118.21,18.29 L118.21,18.38 L115.8,18.38 C115.622309,18.0539894 115.523018,17.6910627 115.51,17.32 Z M115.51,15.07 L115.51,13.68 C114.962339,13.9333841 114.384212,14.114889 113.79,14.22 C112.5,14.51 111.87,14.8 111.87,15.67 C111.87,16.54 112.45,16.84 113.32,16.84 C114.75,16.84 115.53,16 115.53,15.07 L115.51,15.07 Z" id="Shape" fill="#FFFFFF"></path>
            <path d="M118.59,9.06 L119.87,9.06 L119.87,6.17 L122.28,6.17 L122.28,9.06 L123.87,9.06 L123.87,10.69 L122.28,10.69 L122.28,15.61 C122.243271,15.8643417 122.327901,16.1211921 122.508628,16.303884 C122.689356,16.4865758 122.945276,16.5739773 123.2,16.54 L123.92,16.54 L123.92,18.35 C123.92,18.35 123.36,18.35 122.39,18.35 C121.19,18.35 119.87,17.87 119.87,16.12 L119.87,10.69 L118.59,10.69 L118.59,9.06 Z" id="Path" fill="#FFFFFF"></path>
            <path d="M125.05,5.41 L127.51,5.41 L127.51,7.62 L125.05,7.62 L125.05,5.41 Z M125.05,9.06 L127.51,9.06 L127.51,18.35 L125.05,18.35 L125.05,9.06 Z" id="Shape" fill="#FFFFFF"></path>
            <path d="M131.49,10.33 L131.49,10.33 C132.046813,9.34541642 133.110083,8.75771819 134.24,8.81 C135.139349,8.80398068 135.999716,9.17670003 136.610451,9.83690279 C137.221186,10.4971055 137.525904,11.3838395 137.45,12.28 L137.45,18.35 L135,18.35 L135,12.65 C135.047374,12.2021613 134.896349,11.7560256 134.586685,11.4290514 C134.277021,11.1020771 133.839751,10.9270313 133.39,10.95 C132.849541,10.9613219 132.338317,11.1976313 131.97953,11.6019777 C131.620744,12.0063241 131.446938,12.5420334 131.5,13.08 L131.5,18.35 L129.04,18.35 L129.04,9.06 L131.45,9.06 L131.49,10.33 Z" id="Path" fill="#FFFFFF"></path>
            <path d="M138.54,13.71 C138.54,11.031419 140.711419,8.86 143.39,8.86 C146.068581,8.86 148.24,11.031419 148.24,13.71 C148.24,16.388581 146.068581,18.56 143.39,18.56 C140.711419,18.56 138.54,16.388581 138.54,13.71 L138.54,13.71 Z M145.74,13.71 C145.74,11.9 144.89,10.71 143.39,10.71 C141.89,10.71 141.04,11.94 141.04,13.71 C141.04,15.48 141.87,16.71 143.39,16.71 C144.91,16.71 145.74,15.52 145.74,13.71 L145.74,13.71 Z" id="Shape" fill="#FFFFFF"></path>
            <path d="M152.62,5.41 L158.3,5.41 C159.54845,5.32901904 160.774986,5.76680886 161.69,6.62 C162.44719,7.41331047 162.860494,8.47352432 162.84,9.57 C162.84,12.01 161.23,13.66 158.52,13.66 L155.33,13.66 L155.33,18.35 L152.62,18.35 L152.62,5.41 Z M155.33,11.52 L158.05,11.52 C158.59655,11.5953201 159.148196,11.4227726 159.554413,11.0494395 C159.960631,10.6761064 160.179023,10.1409517 160.15,9.59 C160.182904,9.04588073 159.968828,8.51590986 159.567237,8.14729995 C159.165646,7.77869004 158.619315,7.61070249 158.08,7.69 L155.33,7.69 L155.33,11.52 Z" id="Shape" fill="#FFFFFF"></path>
            <path d="M163.17,13.71 C163.17,11.031419 165.341419,8.86 168.02,8.86 C170.698581,8.86 172.87,11.031419 172.87,13.71 C172.87,16.388581 170.698581,18.56 168.02,18.56 C165.341419,18.56 163.17,16.388581 163.17,13.71 Z M170.37,13.71 C170.37,11.9 169.52,10.71 168.02,10.71 C166.52,10.71 165.67,11.94 165.67,13.71 C165.67,15.48 166.5,16.71 168.02,16.71 C169.54,16.71 170.37,15.52 170.37,13.71 L170.37,13.71 Z" id="Shape" fill="#FFFFFF"></path>
            <polygon id="Path" fill="#FFFFFF" points="174.05 5.41 176.51 5.41 176.51 18.35 174.05 18.35"></polygon>
            <path d="M178.1,5.41 L180.56,5.41 L180.56,7.62 L178.1,7.62 L178.1,5.41 Z M178.1,9.06 L180.56,9.06 L180.56,18.35 L178.1,18.35 L178.1,9.06 Z" id="Shape" fill="#FFFFFF"></path>
            <path d="M181.7,13.71 C181.610383,12.4321398 182.060025,11.1751493 182.939812,10.2440571 C183.819599,9.31296498 185.049116,8.79287674 186.33,8.81 C188.416501,8.64240883 190.269832,10.1356139 190.55,12.21 L188.14,12.21 C188.006198,11.3778055 187.282815,10.7693122 186.44,10.78 C184.96,10.78 184.2,11.92 184.2,13.71 C184.2,15.5 184.9,16.65 186.41,16.65 C187.359142,16.7248779 188.190398,16.0187573 188.27,15.07 L190.64,15.07 C190.459589,17.2012694 188.592356,18.7870769 186.46,18.62 C185.15863,18.6620666 183.899926,18.1530409 182.993628,17.2181835 C182.08733,16.2833261 181.61759,15.0094392 181.7,13.71 Z" id="Path" fill="#FFFFFF"></path>
            <path d="M191.54,19.45 L192.41,19.45 C193.41,19.45 193.79,18.94 193.79,18.18 C193.692248,17.3101242 193.452394,16.4621884 193.08,15.67 L190.59,9.06 L193.17,9.06 L194.55,13.24 C194.84,14.09 195.15,15.24 195.15,15.24 L195.15,15.24 C195.15,15.24 195.41,14.06 195.7,13.24 L197,9.06 L199.48,9.06 L196.24,18.58 C195.53,20.65 194.84,21.39 192.96,21.39 L191.51,21.39 L191.54,19.45 Z" id="Path" fill="#FFFFFF"></path>
            <path d="M202.93,15 C202.93,13.15 204.11,12 205.79,11.14 C205.095617,10.4200311 204.705257,9.46024789 204.7,8.46 C204.712892,7.60607106 205.082057,6.79638342 205.718265,6.22664559 C206.354472,5.65690777 207.199827,5.37896555 208.05,5.46 C210.05,5.46 211.44,6.65 211.44,8.46 C211.44,10.05 210.51,10.84 209.12,11.57 L210.84,13.79 C211.096749,13.1180113 211.264831,12.4154288 211.34,11.7 L213.53,11.7 C213.443755,13.1121438 213.022099,14.4833813 212.3,15.7 L214.3,18.34 L211.3,18.34 L210.64,17.49 C209.642071,18.2205464 208.43675,18.6129765 207.2,18.6100916 C204.4,18.62 202.93,17 202.93,15 Z M209.39,15.81 L207,12.74 C206.127979,13.131669 205.554143,13.984668 205.52,14.94 C205.521364,15.4019979 205.7152,15.8425277 206.054898,16.1556564 C206.394595,16.4687852 206.849419,16.6261827 207.31,16.59 C208.072622,16.5976743 208.811971,16.3275279 209.39,15.83 L209.39,15.81 Z M208,10.19 C208.660619,9.88760949 209.083083,9.22653182 209.080034,8.49999844 C209.080034,7.94771525 208.632285,7.49999844 208.08,7.49999844 C207.805889,7.49965714 207.543654,7.61184953 207.354611,7.81034405 C207.165569,8.00883856 207.066294,8.27623139 207.08,8.55 C207.163579,9.19489339 207.493219,9.78251289 208,10.19 L208,10.19 Z" id="Shape" fill="#FFFFFF"></path>
            <path d="M100.06,24.83 L105.74,24.83 C106.982679,24.7382602 108.208442,25.1613111 109.13,26 C109.899609,26.8056492 110.313877,27.8863479 110.28,29 C110.28,31.44 108.67,33.09 105.96,33.09 L102.77,33.09 L102.77,37.78 L100.06,37.78 L100.06,24.83 Z M102.77,30.94 L105.49,30.94 C106.03655,31.0153201 106.588196,30.8427726 106.994413,30.4694395 C107.400631,30.0961064 107.619023,29.5609517 107.59,29.01 C107.622904,28.4658807 107.408828,27.9359099 107.007237,27.5672999 C106.605646,27.19869 106.059315,27.0307025 105.52,27.11 L102.77,27.11 L102.77,30.94 Z" id="Shape" fill="#FFFFFF"></path>
            <path d="M110.61,33.13 C110.621035,30.4540502 112.797316,28.2926692 115.473278,28.299981 C118.149241,28.3073673 120.313617,30.4806692 120.309964,33.1566392 C120.306291,35.8326092 118.135973,37.9999772 115.46,38 C114.15935,38.0365107 112.901318,37.5344803 111.983152,36.6125281 C111.064986,35.690576 110.568137,34.4304891 110.61,33.13 Z M117.81,33.13 C117.81,31.32 116.96,30.13 115.46,30.13 C113.96,30.13 113.11,31.36 113.11,33.13 C113.11,34.9 113.94,36.13 115.46,36.13 C116.98,36.13 117.81,34.94 117.81,33.13 Z" id="Shape" fill="#FFFFFF"></path>
            <polygon id="Path" fill="#FFFFFF" points="121.49 24.83 124 24.83 124 37.77 121.54 37.77"></polygon>
            <path d="M125.54,24.83 L128,24.83 L128,27 L125.54,27 L125.54,24.83 Z M125.54,28.48 L128,28.48 L128,37.77 L125.54,37.77 L125.54,28.48 Z" id="Shape" fill="#FFFFFF"></path>
            <path d="M128.86,28.48 L130.14,28.48 L130.14,25.59 L132.55,25.59 L132.55,28.48 L134.14,28.48 L134.14,30.11 L132.55,30.11 L132.55,35 C132.513271,35.2543417 132.597901,35.5111921 132.778628,35.693884 C132.959356,35.8765758 133.215276,35.9639773 133.47,35.93 L134.19,35.93 L134.19,37.74 C134.19,37.74 133.63,37.74 132.66,37.74 C131.46,37.74 130.14,37.26 130.14,35.51 L130.14,30.11 L128.86,30.11 L128.86,28.48 Z" id="Path" fill="#FFFFFF"></path>
            <path d="M135.32,24.83 L137.78,24.83 L137.78,27 L135.32,27 L135.32,24.83 Z M135.32,28.48 L137.78,28.48 L137.78,37.77 L135.32,37.77 L135.32,28.48 Z" id="Shape" fill="#FFFFFF"></path>
            <path d="M138.92,33.13 C138.830383,31.8521398 139.280025,30.5951493 140.159812,29.6640571 C141.039599,28.732965 142.269116,28.2128767 143.55,28.23 C145.636501,28.0624088 147.489832,29.5556139 147.77,31.63 L145.36,31.63 C145.222266,30.8000397 144.501287,30.1935689 143.66,30.2 C142.18,30.2 141.42,31.34 141.42,33.13 C141.42,34.92 142.12,36.07 143.62,36.07 C144.57108,36.1450522 145.405229,35.4402627 145.49,34.49 L147.86,34.49 C147.659087,36.605227 145.798101,38.1679205 143.68,38 C142.386005,38.0411643 141.13411,37.5374946 140.22917,36.6116427 C139.324231,35.6857909 138.849289,34.4227169 138.92,33.13 L138.92,33.13 Z" id="Path" fill="#FFFFFF"></path>
            <path d="M148.42,34.76 L150.7,34.76 C150.829663,35.7360244 151.723251,36.4240868 152.7,36.3 C153.79,36.3 154.4,35.88 154.4,35.23 C154.4,34.35 153.22,34.23 151.96,34 C150.29,33.68 148.66,33.22 148.66,31.2 C148.66,29.18 150.33,28.2 152.45,28.2 C154.89,28.2 156.25,29.41 156.45,31.28 L154.22,31.28 C154.11,30.28 153.48,29.92 152.43,29.92 C151.38,29.92 150.84,30.28 150.84,30.92 C150.84,31.56 152.07,31.79 153.39,32.06 C154.95,32.39 156.66,32.82 156.66,34.99 C156.66,36.86 155.07,37.9901175 152.76,37.9901175 C150.07,38 148.57,36.74 148.42,34.76 Z" id="Path" fill="#FFFFFF"></path>
            <polygon id="Path" fill="#FFFFFF" points="161 24.83 163.62 24.83 163.62 37.77 161 37.77"></polygon>
            <path d="M167.88,29.75 L167.93,29.75 C168.486813,28.7654164 169.550083,28.1777182 170.68,28.23 C171.579349,28.2239807 172.439716,28.5967 173.050451,29.2569028 C173.661186,29.9171055 173.965904,30.8038395 173.89,31.7 L173.89,37.77 L171.43,37.77 L171.43,32.07 C171.477374,31.6221613 171.326349,31.1760256 171.016685,30.8490514 C170.707021,30.5220771 170.269751,30.3470313 169.82,30.37 C169.279541,30.3813219 168.768317,30.6176313 168.40953,31.0219777 C168.050744,31.4263241 167.876938,31.9620334 167.93,32.5 L167.93,37.77 L165.47,37.77 L165.47,28.48 L167.88,28.48 L167.88,29.75 Z" id="Path" fill="#FFFFFF"></path>
            <path d="M175.44,24.83 L177.9,24.83 L177.9,27 L175.44,27 L175.44,24.83 Z M175.44,28.48 L177.9,28.48 L177.9,37.77 L175.44,37.77 L175.44,28.48 Z" id="Shape" fill="#FFFFFF"></path>
            <path d="M178.75,28.48 L180,28.48 L180,25.59 L182.41,25.59 L182.41,28.48 L184,28.48 L184,30.11 L182.41,30.11 L182.41,35 C182.373271,35.2543417 182.457901,35.5111921 182.638628,35.693884 C182.819356,35.8765758 183.075276,35.9639773 183.33,35.93 L184.05,35.93 L184.05,37.74 C184.05,37.74 183.49,37.74 182.51,37.74 C181.32,37.74 180,37.26 180,35.51 L180,30.11 L178.71,30.11 L178.75,28.48 Z" id="Path" fill="#FFFFFF"></path>
            <path d="M185.22,24.83 L187.68,24.83 L187.68,27 L185.22,27 L185.22,24.83 Z M185.22,28.48 L187.68,28.48 L187.68,37.77 L185.22,37.77 L185.22,28.48 Z" id="Shape" fill="#FFFFFF"></path>
            <path d="M194.83,36.74 L194.83,36.74 C194.226925,37.6590521 193.14906,38.1493443 192.06,38 C190.16,38 188.82,37 188.82,35.16 C188.82,33.16 190.48,32.47 192.54,32.16 C194.08,31.94 194.79,31.81 194.79,31.16 C194.79,30.51 194.26,30 193.23,30 C192.2,30 191.51,30.42 191.44,31.31 L189.25,31.31 C189.32,29.68 190.54,28.25 193.25,28.25 C195.96,28.25 197.16,29.5 197.16,31.67 L197.16,36.39 C197.16,37.1 197.27,37.51 197.49,37.68 L197.49,37.77 L195.11,37.77 C194.945333,37.450154 194.849926,37.0991932 194.83,36.74 Z M194.83,34.49 L194.83,33.1 C194.283612,33.356664 193.705042,33.5383079 193.11,33.64 C191.83,33.93 191.2,34.22 191.2,35.09 C191.2,35.96 191.77,36.26 192.64,36.26 C194.06,36.26 194.84,35.4 194.84,34.49 L194.83,34.49 Z" id="Shape" fill="#FFFFFF"></path>
            <path d="M197.9,28.48 L199.19,28.48 L199.19,25.59 L201.59,25.59 L201.59,28.48 L203.19,28.48 L203.19,30.11 L201.59,30.11 L201.59,35 C201.552525,35.2563221 201.638373,35.5152795 201.821547,35.6984535 C202.00472,35.8816275 202.263678,35.9674752 202.52,35.93 L203.24,35.93 L203.24,37.74 C203.24,37.74 202.68,37.74 201.7,37.74 C200.51,37.74 199.19,37.26 199.19,35.51 L199.19,30.11 L197.9,30.11 L197.9,28.48 Z" id="Path" fill="#FFFFFF"></path>
            <path d="M204.36,24.83 L206.83,24.83 L206.83,27 L204.36,27 L204.36,24.83 Z M204.36,28.48 L206.83,28.48 L206.83,37.77 L204.36,37.77 L204.36,28.48 Z" id="Shape" fill="#FFFFFF"></path>
            <path d="M207.54,28.48 L210,28.48 L211.48,33.3 C211.75,34.18 211.9,34.78 211.9,34.78 L211.9,34.78 C211.9,34.78 212.03,34.18 212.3,33.3 L213.82,28.48 L216.28,28.48 L213.04,37.77 L210.69,37.77 L207.54,28.48 Z" id="Path" fill="#FFFFFF"></path>
            <path d="M216.29,33.12 C216.210028,31.8540519 216.65636,30.6112674 217.523479,29.6854571 C218.390598,28.7596467 219.601532,28.2329916 220.87,28.23 C223.87,28.23 225.45,30.51 225.45,33.82 L218.72,33.82 C218.717084,34.4449217 218.967487,35.0443614 219.414064,35.4815167 C219.860641,35.918672 220.465283,36.1562387 221.09,36.14 C221.876164,36.2099555 222.610944,35.7419947 222.88,35 L225.3,35 C224.819356,36.8863087 223.05058,38.1527353 221.11,38 C219.802167,38.0651541 218.528551,37.5698416 217.608371,36.6382073 C216.688191,35.7065731 216.208672,34.4269273 216.29,33.12 L216.29,33.12 Z M218.75,32.12 L222.88,32.12 C222.88,31.0154305 221.984569,30.12 220.88,30.12 C219.74037,30.0863175 218.788057,30.9805081 218.75,32.12 Z" id="Shape" fill="#FFFFFF"></path>
        </g>
    </g>
</svg>