<svg id="Black_Boxed" data-name="Black Boxed" xmlns="http://www.w3.org/2000/svg" viewBox="0 0 457.18 68.18"><defs><style>.cls-1{fill:#117bb6;}.cls-2{fill:#231f20;}</style></defs><title>Uxd_Blk_LPPI_Luskin_E</title><g id="logo-blue-boxed"><path class="cls-1" d="M20.07,38A25.11,25.11,0,0,1,20,35.21L21.35,20h5L25,35.34c-.3,3.32,1,5.69,4.32,5.69s5.18-2.41,5.48-5.36L36.18,20h5L39.78,35.48c-.56,6-4.51,10.42-10.9,10.42-5,0-8.2-3.22-8.81-7.88"/><path class="cls-1" d="M42.3,32.87c.65-7.3,5.57-13.35,14.08-13.35a11.68,11.68,0,0,1,6.54,1.89l-.57,6a7.36,7.36,0,0,0-6.45-3c-5.29,0-8.19,3.68-8.61,8.33S49.23,41,54.36,41a9.54,9.54,0,0,0,7.1-3.13l-.56,6.19A14.31,14.31,0,0,1,54,46c-8.42,0-12.28-6.25-11.67-13.09"/><path class="cls-1" d="M66.89,20h5L70,40.65h7.12c.5,0,2.19,0,2.65,0,0,.25-.45,4.77-.45,4.77H64.64Z"/><path class="cls-1" d="M92.76,29.47a6.8,6.8,0,0,0,.37-1.06s.08,0,.08,0a5.79,5.79,0,0,0,.18,1.08c.28,1.15,2.21,7.57,2.21,7.57H89.33s3.36-7.41,3.43-7.58M94,18.84h-.34L80.09,45.37h5.28l1.91-4h9.58l1.19,4h5.27Z"/></g><path class="cls-2" d="M111.64,26.54h3.52V41h8.14v2.93H111.64Z"/><path class="cls-2" d="M132.3,42.5h-.05c-.63.94-1.53,1.67-3.66,1.67-2.55,0-4.34-1.33-4.34-3.81,0-2.74,2.23-3.61,5-4,2.06-.29,3-.46,3-1.4s-.7-1.48-2.08-1.48c-1.56,0-2.31.56-2.4,1.74h-2.94c.1-2.18,1.72-4.09,5.36-4.09s5.24,1.67,5.24,4.58V42c0,.94.14,1.5.43,1.72v.12h-3.17A3.21,3.21,0,0,1,132.3,42.5Zm0-3V37.62a9,9,0,0,1-2.3.73c-1.72.39-2.57.78-2.57,1.94s.78,1.58,1.94,1.58C131.28,41.87,132.32,40.7,132.32,39.49Z"/><path class="cls-2" d="M136.38,31.44h1.72V27.56h3.23v3.88h2.13v2.18h-2.13v6.6a1.09,1.09,0,0,0,1.23,1.23l1,0v2.42s-.75,0-2.06,0c-1.6,0-3.37-.63-3.37-3v-7.3h-1.72Z"/><path class="cls-2" d="M145,26.54h3.3v3H145Zm0,4.9h3.3V43.88H145Z"/><path class="cls-2" d="M153.59,33.14h.07a4.06,4.06,0,0,1,3.69-2c2.57,0,4.29,1.94,4.29,4.66v8.12h-3.3V36.24A2.07,2.07,0,0,0,156.18,34a2.6,2.6,0,0,0-2.52,2.86v7.06h-3.29V31.44h3.22Z"/><path class="cls-2" d="M163,37.67a6.5,6.5,0,1,1,13,0,6.5,6.5,0,1,1-13,0Zm9.65,0c0-2.42-1.14-4.07-3.16-4.07s-3.15,1.65-3.15,4.07,1.12,4,3.15,4S172.65,40.1,172.65,37.67Z"/><path class="cls-2" d="M181.86,26.54h7.61A6.09,6.09,0,0,1,194,28.17a5.54,5.54,0,0,1,1.55,3.95c0,3.27-2.16,5.48-5.79,5.48H185.5v6.28h-3.64Zm3.64,8.2h3.63c1.85,0,2.82-1,2.82-2.6s-1-2.54-2.77-2.54H185.5Z"/><path class="cls-2" d="M196,37.67a6.5,6.5,0,1,1,13,0,6.5,6.5,0,1,1-13,0Zm9.65,0c0-2.42-1.14-4.07-3.15-4.07s-3.15,1.65-3.15,4.07,1.11,4,3.15,4S205.6,40.1,205.6,37.67Z"/><path class="cls-2" d="M210.48,26.54h3.3V43.88h-3.3Z"/><path class="cls-2" d="M215.87,26.54h3.3v3h-3.3Zm0,4.9h3.3V43.88h-3.3Z"/><path class="cls-2" d="M220.65,37.67c0-3.71,2.43-6.57,6.21-6.57a5.28,5.28,0,0,1,5.65,4.56h-3.23A2.27,2.27,0,0,0,227,33.74c-2,0-3,1.53-3,3.93s.94,3.93,3,3.93a2.31,2.31,0,0,0,2.49-2.11h3.18c-.22,2.64-2.28,4.75-5.6,4.75C223.1,44.24,220.65,41.38,220.65,37.67Z"/><path class="cls-2" d="M233.8,45.36H235c1.31,0,1.84-.68,1.84-1.7a10.78,10.78,0,0,0-.94-3.37l-3.35-8.85H236l1.84,5.6c.39,1.14.8,2.72.8,2.72h0s.34-1.58.73-2.72l1.75-5.6h3.32l-4.34,12.75C239.18,47,238.26,48,235.74,48H233.8Z"/><path class="cls-2" d="M249.05,39.42c0-2.48,1.58-4,3.83-5.17a5.21,5.21,0,0,1-1.45-3.58c0-2.26,1.79-4,4.48-4s4.54,1.6,4.54,4c0,2.13-1.24,3.2-3.11,4.17l2.31,3a11.1,11.1,0,0,0,.68-2.81h2.93a12.08,12.08,0,0,1-1.65,5.36l2.74,3.54h-4l-.9-1.14a7.75,7.75,0,0,1-4.61,1.5C251,44.24,249.05,42.13,249.05,39.42Zm8.66,1.09-3.18-4.15a3.38,3.38,0,0,0-2,3,2.24,2.24,0,0,0,2.4,2.21A4.26,4.26,0,0,0,257.71,40.51Zm-1.84-7.57a2.47,2.47,0,0,0,1.45-2.25,1.36,1.36,0,1,0-2.72,0A3.36,3.36,0,0,0,255.87,32.94Z"/><path class="cls-2" d="M269.91,26.54h7.61a6.07,6.07,0,0,1,4.53,1.63,5.54,5.54,0,0,1,1.56,3.95c0,3.27-2.16,5.48-5.8,5.48h-4.27v6.28h-3.63Zm3.63,8.2h3.64c1.84,0,2.81-1,2.81-2.6s-1-2.54-2.76-2.54h-3.69Z"/><path class="cls-2" d="M284,37.67a6.5,6.5,0,1,1,13,0,6.5,6.5,0,1,1-13,0Zm9.65,0c0-2.42-1.14-4.07-3.15-4.07s-3.16,1.65-3.16,4.07,1.12,4,3.16,4S293.65,40.1,293.65,37.67Z"/><path class="cls-2" d="M298.53,26.54h3.3V43.88h-3.3Z"/><path class="cls-2" d="M303.92,26.54h3.29v3h-3.29Zm0,4.9h3.29V43.88h-3.29Z"/><path class="cls-2" d="M308.32,31.44H310V27.56h3.23v3.88h2.13v2.18h-2.13v6.6a1.09,1.09,0,0,0,1.23,1.23l1,0v2.42s-.75,0-2.06,0c-1.6,0-3.37-.63-3.37-3v-7.3h-1.72Z"/><path class="cls-2" d="M316.94,26.54h3.3v3h-3.3Zm0,4.9h3.3V43.88h-3.3Z"/><path class="cls-2" d="M321.72,37.67c0-3.71,2.42-6.57,6.21-6.57a5.29,5.29,0,0,1,5.65,4.56h-3.23a2.29,2.29,0,0,0-2.28-1.92c-2,0-3,1.53-3,3.93S326,41.6,328,41.6a2.32,2.32,0,0,0,2.5-2.11h3.18c-.22,2.64-2.28,4.75-5.6,4.75C324.17,44.24,321.72,41.38,321.72,37.67Z"/><path class="cls-2" d="M334.42,39.85h3.05a2.4,2.4,0,0,0,2.72,2.07c1.45,0,2.28-.56,2.28-1.44,0-1.18-1.58-1.3-3.28-1.64-2.23-.44-4.41-1.05-4.41-3.76s2.23-4,5.07-4c3.27,0,5.09,1.63,5.33,4.12h-3c-.15-1.33-1-1.82-2.4-1.82s-2.13.49-2.13,1.39c0,1.06,1.64,1.16,3.41,1.52,2.09.44,4.39,1,4.39,3.93,0,2.5-2.13,4-5.23,4C336.62,44.24,334.61,42.5,334.42,39.85Z"/><path class="cls-2" d="M351.32,26.54h3.51V43.88h-3.51Z"/><path class="cls-2" d="M360.45,33.14h.07a4.06,4.06,0,0,1,3.69-2c2.57,0,4.29,1.94,4.29,4.66v8.12h-3.3V36.24A2.07,2.07,0,0,0,363,34a2.6,2.6,0,0,0-2.52,2.86v7.06h-3.3V31.44h3.23Z"/><path class="cls-2" d="M370.54,26.54h3.29v3h-3.29Zm0,4.9h3.29V43.88h-3.29Z"/><path class="cls-2" d="M374.94,31.44h1.72V27.56h3.23v3.88H382v2.18h-2.13v6.6a1.09,1.09,0,0,0,1.23,1.23l1,0v2.42s-.75,0-2.06,0c-1.6,0-3.37-.63-3.37-3v-7.3h-1.72Z"/><path class="cls-2" d="M383.56,26.54h3.3v3h-3.3Zm0,4.9h3.3V43.88h-3.3Z"/><path class="cls-2" d="M396.39,42.5h-.05c-.63.94-1.53,1.67-3.66,1.67-2.55,0-4.34-1.33-4.34-3.81,0-2.74,2.23-3.61,5-4,2.06-.29,3-.46,3-1.4s-.7-1.48-2.08-1.48c-1.56,0-2.31.56-2.4,1.74h-2.94c.1-2.18,1.72-4.09,5.36-4.09s5.24,1.67,5.24,4.58V42c0,.94.14,1.5.43,1.72v.12h-3.17A3.21,3.21,0,0,1,396.39,42.5Zm0-3V37.62a9,9,0,0,1-2.3.73c-1.72.39-2.57.78-2.57,1.94s.78,1.58,1.94,1.58C395.37,41.87,396.41,40.7,396.41,39.49Z"/><path class="cls-2" d="M400.47,31.44h1.72V27.56h3.23v3.88h2.13v2.18h-2.13v6.6a1.08,1.08,0,0,0,1.23,1.23l1,0v2.42s-.75,0-2.06,0c-1.6,0-3.37-.63-3.37-3v-7.3h-1.72Z"/><path class="cls-2" d="M409.09,26.54h3.29v3h-3.29Zm0,4.9h3.29V43.88h-3.29Z"/><path class="cls-2" d="M413.3,31.44h3.35l2,6.45c.36,1.19.56,2,.56,2h0s.17-.8.54-2l2-6.45h3.3l-4.34,12.44h-3.15Z"/><path class="cls-2" d="M425,37.65c0-3.69,2.49-6.55,6.13-6.55,4,0,6.13,3.06,6.13,7.49h-9c.25,1.92,1.31,3.11,3.18,3.11a2.31,2.31,0,0,0,2.4-1.53h3.25c-.46,2.21-2.42,4.07-5.63,4.07C427.31,44.24,425,41.36,425,37.65Zm3.29-1.34h5.53a2.62,2.62,0,0,0-2.64-2.66C429.42,33.65,428.57,34.69,428.28,36.31Z"/></svg>