<?xml version="1.0" encoding="UTF-8"?>
<svg width="1440px" height="430px" viewBox="0 0 1440 430" version="1.1" xmlns="http://www.w3.org/2000/svg" xmlns:xlink="http://www.w3.org/1999/xlink">
    <title>Module / Donate Copy</title>
    <defs>
        <rect id="path-1" x="0" y="0" width="1440" height="430"></rect>
    </defs>
    <g id="Page-1" stroke="none" stroke-width="1" fill="none" fill-rule="evenodd">
        <g id="Module-/-Donate-Copy">
            <mask id="mask-2" fill="white">
                <use xlink:href="#path-1"></use>
            </mask>
            <use id="Background" fill-opacity="0.14" fill="#0F2241" opacity="0" xlink:href="#path-1"></use>
            <path d="M1181.02492,391.672864 C1178.80587,393.048468 1176.75752,395.139387 1174.34536,395.71714 C1132.93169,405.652442 1091.75596,416.805153 1049.95951,424.838681 C996.731595,435.073177 943.039865,442.946791 889.475727,451.387843 C875.902788,453.526907 862.028114,453.69198 848.35,455.268766 C839.715183,456.264359 831.242442,458.718093 822.602453,459.608797 C800.07572,461.935288 777.507607,463.888646 754.930872,465.659736 C750.999686,465.969247 746.925391,464.168925 742.944202,464.284132 C740.506177,464.351193 738.144017,467.050816 735.702543,467.124755 C714.513793,467.773008 693.31125,468.613846 672.1225,468.386872 C643.311042,468.077361 614.387511,468.264787 585.739852,465.737114 C542.039887,461.881983 498.683039,455.007401 461.424703,429.147762 C437.020312,412.210635 415.828114,392.800859 411.734852,360.665026 C408.776117,337.436229 414.916009,316.666325 427.195794,297.705341 C436.466842,283.38702 447.753485,270.378963 457.807322,256.545543 C460.590188,252.716205 461.795407,247.776066 464.395508,243.779936 C468.426698,237.589717 472.259605,230.964464 477.525325,225.926313 C507.204058,197.532123 540.232921,173.309452 574.953228,151.521601 C600.655945,135.394361 626.731091,119.684961 653.59075,105.588457 C739.456136,60.5202243 828.664756,23.6832631 923.159787,0.456186112 C986.30533,-15.0657879 1050.18021,-26.8512769 1115.081,-30.7614319 C1154.2601,-33.1223126 1193.69438,-31.4148439 1233.01659,-31.2377348 C1264.8592,-31.0950159 1296.69836,-30.4845915 1328.53752,-30.1252149 C1386.91391,-29.4666444 1444.56269,-23.2265598 1500.58038,-6.17250666 C1528.5987,2.35451992 1554.81868,14.5733243 1575.73328,36.0860546 C1599.78076,60.8194182 1607.45864,104.795765 1591.92873,135.659165 C1579.47846,160.502641 1560.89043,181.775694 1537.9163,197.47366 C1525.7279,205.899235 1513.08776,213.80896 1501.74766,223.266238 C1492.0835,231.330718 1484.60907,241.976175 1475.07939,250.23152 C1460.18399,263.127809 1444.12992,274.694921 1429.08278,287.433016 C1424.26363,291.511683 1421.39973,297.801633 1417.08922,302.583577 C1405.37497,315.574439 1394.66421,329.906516 1381.17059,340.756594 C1360.48013,357.392807 1338.00685,371.879639 1315.85944,386.639872 C1304.02968,394.522084 1291.29643,401.054485 1278.97181,408.19559 C1270.02319,408.711442 1262.40393,411.815149 1257.08993,419.396447 C1242.72558,425.878982 1228.37848,432.399346 1213.98482,438.813101 C1210.88125,440.188705 1207.61561,441.186018 1204.46031,442.32605 C1192.90699,446.911397 1181.32896,451.511074 1169.72621,456.12508 C1165.9002,458.688862 1162.39489,462.095202 1158.19818,463.690903 C1073.87316,495.840093 987.525485,522.441709 899.710605,543.32463 C844.32743,556.449614 789.145988,570.664764 733.338659,581.681634 C684.381595,591.352132 634.695192,597.377278 585.286386,604.714407 C577.389529,605.88711 569.251284,605.342026 561.242353,605.880232 C552.443808,606.658368 543.735666,603.618198 537.344878,597.537192 C536.527025,596.826282 535.617842,596.227209 534.641326,595.755785 C532.110193,594.455839 529.539404,593.238429 526.982409,591.988349 L533.958541,586.890015 C533.431996,586.35575 532.849305,585.879569 532.220542,585.469704 C529.758378,584.223063 527.253109,583.062397 524.763358,581.86906 C527.596226,580.163311 530.339435,577.138701 533.275756,576.939239 C632.219234,570.210814 727.453949,544.383845 822.969708,520.463808 C934.698164,492.484018 1044.93691,459.46092 1152.38761,417.750881 C1177.13167,408.145724 1201.59124,397.744437 1225.80079,386.865127 C1243.54387,378.821266 1260.7084,369.56433 1277.17174,359.160459 C1268.47313,362.092215 1259.82107,365.16841 1251.06901,367.929935 C1232.62002,373.740144 1214.10379,379.304463 1195.68756,385.195488 C1193.2116,385.98646 1191.15635,388.091135 1188.91144,389.587104 L1181.02492,391.672864 Z M642.766789,167.814607 C633.129178,172.141333 623.146139,175.835467 613.914105,180.903083 C571.751033,203.86564 532.954919,232.534125 498.621951,266.098508 C486.705546,277.804907 477.617871,292.370005 467.047089,305.473952 C454.34273,320.859591 446.970714,339.95228 446.037853,359.885501 C445.747419,365.797147 447.110226,373.398571 450.751827,377.572306 C459.078187,387.116201 470.547769,392.611848 484.007428,396 C474.830387,379.241456 470.956783,362.565424 480.556586,346.363837 C487.275656,334.969267 495.473954,324.515074 504.93761,315.273979 C533.584068,287.586024 568.008281,268.12521 603.040859,249.87973 C658.001707,221.256639 715.686452,199.25686 774.723693,180.691646 C851.228245,156.625627 929.229651,139.473432 1009.02006,130.990161 C1036.64742,128.052387 1064.35727,125.807372 1092.08603,123.962883 C1148.34046,120.253798 1204.83121,122.664206 1260.56549,131.151747 C1290.94081,135.74148 1320.84008,141.981455 1349.73401,153.433442 C1379.12117,165.077957 1405.79817,178.948579 1420.17209,209.03454 C1421.91986,212.694294 1423.94087,213.942289 1427.93305,211.858859 C1437.47271,206.88235 1447.35263,202.543591 1456.77886,197.372835 C1464.45905,193.163001 1473.30441,189.516999 1478.77626,183.161851 C1491.21036,169.22877 1498.62233,151.5324 1499.83018,132.894814 C1500.71523,117.898247 1498.26287,102.863861 1489.58592,91.0560409 C1479.18356,76.9035029 1468.35328,61.8123903 1451.77789,54.2419085 C1443.77118,50.5855927 1440.6228,39.7060333 1429.95234,40.7580621 C1429.09307,40.8440121 1428.00351,38.055792 1426.91224,36.6891859 C1423.53701,32.4587237 1416.32255,34.0178579 1414.00595,28.1577824 C1413.54889,28.4498206 1413.05391,28.6777105 1412.53487,28.8350689 C1410.27326,29.1891832 1407.70576,30.308253 1405.77411,29.6378425 C1382.58232,21.5894783 1359.62253,12.9308686 1335.42195,8.04374785 C1313.24067,3.56403039 1291.19,0.951148377 1268.35738,2.4019855 C1254.16906,3.30274219 1239.76076,8.05062385 1225.19264,2.78360379 C1222.38797,1.76939301 1218.06583,6.02392129 1214.27643,6.49320865 C1189.34547,9.58741104 1164.41795,12.9205546 1139.39075,14.9713232 C1115.01316,16.9670837 1091.58249,26.2600049 1066.46249,23.3445786 C1060.70708,22.6758871 1052.9994,22.6346311 1047.50005,29.4539094 C1045.04081,32.5016987 1038.06694,28.4723596 1032.32356,31.4101329 C1026.18663,34.5507483 1017.87402,33.4351164 1010.5152,34.194915 C1010.26429,34.2207 1010.04947,34.5129303 1009.79169,34.5748143 C993.608135,38.4167823 977.983107,44.3731219 962.134668,48.8906573 C902.121292,65.9964395 842.35195,83.6265171 784.067432,106.023385 C770.934297,111.070373 758.081285,117.011242 744.659434,121.090432 C726.731553,126.539666 708.325916,130.072214 692.559966,141.43997 C686.665351,145.689341 678.780657,147.112674 671.937404,150.136397 C669.344112,151.528322 666.872186,153.135499 664.547652,154.941006 L642.766789,167.814607 Z M1007.25464,172.852925 L1012.11371,167.082818 C1009.9572,166.802798 1008.2344,166.108688 1006.81574,166.492231 C1003.66669,167.479916 1000.57078,168.624099 997.539961,169.920353 L1007.56222,172.589876 C1005.48865,174.117257 1003.52221,176.686651 1001.28621,176.946306 C997.033664,177.441857 992.42688,175.709127 988.326393,176.557673 C982.406348,177.781275 976.956312,181.219579 971.034539,182.429605 C925.405608,191.7636 879.576232,200.184562 834.102819,210.18212 C816.181981,214.122763 798.812367,220.838149 781.541248,227.202237 C752.186394,238.017793 721.110476,244.018704 692.877078,257.951814 C690.506295,259.121109 687.406307,258.822421 684.959493,259.89668 C675.756293,263.940845 666.577285,268.063077 657.595267,272.555275 C649.300983,276.702963 641.478436,281.77896 633.075289,285.672085 C624.953802,289.43114 616.26554,291.951319 608.019639,295.457507 C585.853164,304.854295 567.930599,320.574441 549.206252,334.892791 C538.857404,342.802928 530.131126,352.881947 521.314993,362.555361 C516.855155,367.881106 512.941874,373.626498 509.632148,379.707851 C505.801226,386.117761 509.08438,389.49497 515.626497,390.22981 C534.876148,392.383418 554.160359,396 573.422106,396 C663.895467,396.037253 753.250827,383.487271 842.44203,370.343308 C892.325238,362.99321 941.973441,353.957902 991.554252,344.802101 C1073.58818,329.653874 1154.98448,311.708842 1235.1712,288.743818 C1291.60517,272.580731 1347.40496,254.650974 1401.80164,232.632926 C1408.71355,229.834424 1407.99989,227.276909 1403.92187,222.852595 C1390.34689,208.120156 1372.58503,198.781068 1354.43955,192.439042 C1331.12225,184.29301 1306.19965,180.591656 1282.027,174.741786 C1280.29902,174.324302 1279.17929,171.832974 1277.54981,170.592401 C1275.60929,169.112538 1273.42513,167.941546 1271.34638,166.636483 L1268.87364,169.584329 L1275.57474,170.796051 L1273.98845,172.846136 C1269.68579,172.104508 1265.22243,170.256377 1261.10812,170.828296 C1248.1915,172.62212 1235.80019,168.550801 1223.00625,168.520254 C1201.23376,168.469341 1179.46126,166.585571 1157.68876,165.40779 C1151.97435,165.09892 1146.28412,164.248678 1140.56798,164.219827 C1135.45144,164.185885 1130.32799,164.917331 1125.20973,165.334815 C1121.40818,165.64708 1117.59108,165.949162 1113.79127,166.339493 C1110.23509,166.706064 1105.70607,168.754452 1103.32664,167.317017 C1096.29033,163.062412 1089.86571,165.714963 1083.38753,167.435813 C1077.76988,168.929252 1072.58423,171.327241 1069.17838,164.021268 C1068.62889,162.843487 1066.06803,162.493886 1064.36597,162 C1064.15343,161.938938 1062.94039,163.603783 1063.14084,163.983932 C1066.57087,170.465119 1060.75623,167.483331 1058.75696,168.016218 C1056.02672,168.650401 1053.26136,169.128651 1050.47477,169.448562 C1045.73321,170.144369 1040.98819,170.824902 1036.23452,171.430763 C1030.47173,172.165603 1023.8242,171.301784 1019.16212,173.901726 C1013.97992,176.790174 1011.05619,174.858885 1007.25464,172.852925 Z M1467.73705,15.4320437 C1466.41764,16.6707924 1464.93784,19.1116602 1463.7978,18.9718014 C1452.63889,17.593194 1441.54898,15.7384009 1430.41249,14.1433455 C1428.27921,13.9763867 1426.13637,13.9552442 1424,14.0800761 C1425.22827,15.7401319 1426.66499,17.2467794 1428.27729,18.5655451 C1438.12369,24.8109031 1448.37885,30.4868363 1457.98034,37.0552014 C1490.40498,59.229469 1510.30474,89.23749 1515.93076,127.317357 C1517.45713,137.650253 1516.16187,148.37109 1516.16187,161 C1539.69044,144.163674 1558.86237,126.659688 1569.8902,102.748842 C1575.26096,91.0939481 1576.24749,77.9938477 1567.47559,66.8217997 C1549.73518,44.2479357 1522.90723,36.1577746 1497.00201,26.7139808 C1487.06248,23.0926388 1474.90669,24.7742735 1467.73705,15.4320437 Z M1171,-33.9277764 C1056.01519,-35.5929584 873.893698,-8.96750063 664.76128,98.4227766 C611.517168,125.424987 561.307265,158.139337 515,196 C712.678529,54.4420726 931.610788,-24.6942198 1171,-33.9277764 Z M526,306.161666 L527.018318,308 C538.100722,300.675055 549.013982,293.062649 560.296597,286.078399 C600.221557,261.363808 641.632571,239.523831 685.235557,222.627483 C723.591618,207.764659 762.027073,192.568237 801.45323,181.319975 C850.972815,167.193549 901.403707,156.300178 951.713783,145.318084 C972.830932,140.704504 994.635014,139.391408 1016.14396,136.715532 C1028.71587,135.152238 1041.31712,133.821398 1053.91319,132.456843 C1066.60419,131.083416 1079.30382,129.795163 1092,128.480292 C1082.16201,127.337544 1072.36545,126.363369 1062.81398,127.520313 C1033.66593,131.051476 1004.57138,135.107877 975.532063,139.494327 C899.555202,150.967944 824.567317,167.287595 752.123501,193.726955 C709.197092,209.395382 666.978328,227.264131 625.037444,245.578267 C589.440085,260.928967 556.104967,281.320796 526,306.161666 Z M1296,360.230533 L1294.55816,358 C1284.68076,363.226972 1275.01716,368.899044 1264.8815,373.588538 C1241.44941,384.428795 1218.01733,395.307683 1194.16791,405.215752 C1165.83389,416.988197 1137.1407,427.949386 1108.41159,438.766128 C1103.95437,440.445747 1098.83351,445.420776 1093.36033,439.928424 C1092.34398,440.50975 1091.38187,441.178032 1090.48519,441.925491 C1087.32442,444.156024 1084.48179,447.382571 1080.95671,448.476002 C1026.96029,465.160211 972.912549,481.66806 918.813501,497.999549 C910.918427,500.398045 902.939544,502.534519 895,504.793606 C899.383972,505.305134 903.828862,504.863018 908.019347,503.49862 C965.555102,486.432578 1023.07489,469.30159 1080.57872,452.105657 C1086.26742,450.399165 1088.79876,450.802274 1087.9795,457.453562 C1087.70926,459.648823 1089.2503,462.060755 1089.96353,464.37191 C1091.31869,462.352762 1092.56056,460.262444 1093.68359,458.110293 C1095.96864,453.140302 1094.87229,447.118871 1102.56554,444.374374 C1131.70001,433.984255 1160.6184,423.016907 1189.32071,411.47233 C1208.29215,403.835105 1226.72312,394.897856 1245.34564,386.435939 C1257.46875,380.926791 1269.60897,375.434439 1281.52171,369.510425 C1286.63401,366.964123 1291.19044,363.349584 1296,360.230533 Z M942,355.913733 L942.502136,358 C967.359568,353.509591 992.273749,349.300252 1017.0624,344.475238 C1082.51715,331.736799 1147.79478,318.180249 1211.91853,299.957622 C1237.87309,292.582912 1263.58691,284.388419 1289.30244,276.237424 C1302.35281,272.100024 1315.15555,267.223146 1328.07522,262.699277 C1333.04155,260.961001 1338.02507,259.274588 1343,257.56308 C1342.70422,256.707604 1342.40787,255.853245 1342.11094,255 C1211.90821,300.467896 1077.93258,331.850564 942,355.905368 L942,355.913733 Z M976.00348,396 C1085.75855,379.149043 1193.71964,355.691507 1297,315 C1192.1885,349.455348 1084.90447,376.524225 976,395.991637 L976.00348,396 Z M1389.89318,-22 L1390,-24.4302671 L1314.11888,-29 L1314,-26.0670623 L1389.89318,-22 Z M866,512.062269 L866.550626,515 L878,510.127666 C877.865153,509.419107 877.730774,508.709885 877.596863,508 L866,512.062269 Z" id="Shape" fill="#04132D" opacity="0.0881696429" mask="url(#mask-2)"></path>
        </g>
    </g>
</svg>