<?xml version="1.0" encoding="UTF-8"?>
<svg width="1440px" height="922px" viewBox="0 0 1440 922" version="1.1" xmlns="http://www.w3.org/2000/svg" xmlns:xlink="http://www.w3.org/1999/xlink">
    <title>Group 3</title>
    <defs>
        <rect id="path-1" x="0" y="0" width="1440" height="922"></rect>
    </defs>
    <g id="Page-1" stroke="none" stroke-width="1" fill="none" fill-rule="evenodd">
        <g id="Homepage-Copy" transform="translate(0.000000, -795.000000)">
            <g id="Group-2" transform="translate(0.000000, 795.000000)">
                <g id="Group-3">
                    <mask id="mask-2" fill="white">
                        <use xlink:href="#path-1"></use>
                    </mask>
                    <g id="Rectangle"></g>
                    <path d="M644.616457,586.04023 C641.998014,587.663788 639.58099,590.131596 636.734679,590.81349 C587.867246,602.539637 539.280578,615.702633 489.961479,625.184212 C427.15343,637.263483 363.798092,646.556323 300.593309,656.51888 C284.57747,659.043513 268.205588,659.23834 252.065643,661.099343 C241.876705,662.274393 231.879013,665.170414 221.683971,666.221668 C195.102805,668.967511 168.472811,671.272963 141.832644,673.363294 C137.19391,673.728594 132.38631,671.603763 127.688575,671.739736 C124.811746,671.818884 122.024437,675.005117 119.143539,675.092383 C94.1411708,675.857485 69.1225262,676.849884 44.1201578,676.581997 C10.1231218,676.216697 -24.0061588,676.437907 -57.8099142,673.454619 C-109.375137,668.904598 -160.535488,660.790867 -204.499698,630.270007 C-233.29647,610.27995 -258.302907,587.371547 -263.132887,549.443204 C-266.624145,522.027399 -259.379175,497.513703 -244.889235,475.134987 C-233.949555,458.235778 -220.631506,442.883008 -208.768147,426.556104 C-205.484412,422.036524 -204.062274,416.205922 -200.994199,411.489486 C-196.237462,404.183475 -191.714697,396.364014 -185.501235,390.417733 C-150.480829,356.905468 -111.507327,328.316642 -70.5379487,302.601513 C-40.2091746,283.567326 -9.44094148,265.026294 22.2530039,248.388884 C123.572716,195.197067 228.837387,151.720215 340.339934,124.306439 C414.850613,105.986617 490.221899,92.0767845 566.803732,87.461821 C613.034411,84.6753897 659.566201,86.690631 705.965747,86.8996641 C743.539491,87.0681082 781.109165,87.7885621 818.67884,88.2127166 C887.562003,88.9899949 955.586593,96.3548597 1021.68652,116.482919 C1054.74767,126.546949 1085.6868,140.968202 1110.36568,166.358619 C1138.7413,195.550191 1147.80107,247.453309 1129.47604,283.879861 C1114.78493,313.201393 1092.85137,338.30893 1065.74228,356.836467 C1051.36017,366.780759 1036.44501,376.116217 1023.06389,387.278178 C1011.66034,396.796286 1002.84064,409.360595 991.595781,419.103973 C974.019456,434.324828 955.075925,447.976921 937.320561,463.011068 C931.634043,467.824917 928.254685,475.248636 923.168354,480.892529 C909.345741,496.225004 896.707226,513.140449 880.784976,525.946262 C856.370587,545.581166 829.852492,562.67926 803.718924,580.100037 C789.759997,589.403024 774.734976,597.112895 760.192138,605.54119 C749.632915,606.150024 740.642317,609.813177 734.371888,618.761011 C717.422199,626.412027 700.492855,634.107692 683.508578,641.677531 C679.84642,643.301089 675.993016,644.478168 672.269822,645.823692 C658.637098,651.235552 644.975213,656.664324 631.284167,662.110008 C626.769539,665.135914 622.633335,669.156249 617.681283,671.039576 C518.179178,708.983683 416.290375,740.380261 312.670293,765.027346 C247.319079,780.518118 182.205905,797.29556 116.354195,810.298229 C58.585683,821.711842 -0.0434364365,828.823026 -58.3449962,837.482678 C-67.6631545,838.866761 -77.2661473,838.223426 -86.7165502,838.858643 C-97.0986853,839.777039 -107.374147,836.188877 -114.915169,829.011764 C-115.880222,828.172712 -116.953042,827.465656 -118.105316,826.909257 C-121.092009,825.374994 -124.125497,823.938146 -127.142708,822.462737 L-118.91099,816.445426 C-119.532305,815.814858 -120.219869,815.252846 -120.961799,814.769102 C-123.867111,813.297753 -126.823287,811.927876 -129.761152,810.519439 C-126.418415,808.506227 -123.181474,804.936429 -119.716665,804.701013 C-2.96502493,796.759786 109.410336,766.277485 222.117326,738.045842 C353.955024,705.022674 484.034886,666.047136 610.824909,616.818829 C640.022483,605.482336 668.88436,593.206209 697.451229,580.365895 C718.387761,570.872121 738.641619,559.946615 758.068086,547.667438 C747.80387,551.127646 737.594587,554.758327 727.267301,558.01762 C705.497804,564.875122 683.648961,571.442414 661.918121,578.395301 C658.996532,579.328847 656.57137,581.812891 653.922409,583.57851 L644.616457,586.04023 Z M9.23708303,321.274055 C-2.13785814,326.369489 -13.920496,330.719941 -24.8167485,336.687895 C-74.5803746,363.730094 -120.370095,397.491965 -160.892119,437.019563 C-174.956642,450.805779 -185.682513,467.958585 -198.158844,483.390644 C-213.153362,501.509773 -221.854299,523.994563 -222.955323,547.46922 C-223.298113,554.431158 -221.689638,563.383088 -217.391582,568.29835 C-207.564265,579.537861 -194.027112,586.009893 -178.141138,590 C-188.972484,570.26405 -193.544366,550.625271 -182.214049,531.545229 C-174.283761,518.126243 -164.607591,505.814707 -153.437963,494.931792 C-119.627532,462.324658 -78.9978164,439.406339 -37.6500675,417.919276 C27.2183336,384.210865 95.3016566,358.302495 164.981285,336.438893 C255.276979,308.097186 347.33936,287.897646 441.513244,277.907194 C474.120868,274.447482 506.825852,271.803605 539.553148,269.631416 C605.948318,265.263356 672.622409,268.102009 738.403671,278.097489 C774.254614,283.502657 809.543705,290.851257 843.646217,304.337861 C878.330863,318.051198 909.816814,334.386143 926.781865,369.817326 C928.844689,374.12729 931.230019,375.59701 935.941857,373.143428 C947.201182,367.282768 958.86212,362.173163 969.987575,356.083745 C979.052235,351.12597 989.49211,346.832202 995.950351,339.347967 C1010.62589,322.939465 1019.37399,302.09907 1020.79957,280.150238 C1021.84416,262.489306 1018.94972,244.783836 1008.70862,230.87818 C996.431068,214.211232 983.648457,196.438957 964.0851,187.523466 C954.635055,183.217551 950.919133,170.405075 938.325159,171.644012 C937.310988,171.745233 936.025019,168.461643 934.737022,166.852239 C930.753358,161.870172 922.238379,163.70631 919.504174,156.805104 C918.964721,157.149027 918.380513,157.417405 917.767914,157.602721 C915.098616,158.019749 912.068273,159.337638 909.788417,158.548119 C882.415943,149.069842 855.317296,138.872901 826.754186,133.11751 C800.574378,127.841904 774.548723,124.764804 747.600173,126.473404 C730.854183,127.534194 713.848565,133.125608 696.654311,126.922823 C693.344057,125.728422 688.242777,130.738831 683.770283,131.291494 C654.345128,134.935428 624.924029,138.860755 595.385286,141.275873 C566.613257,143.62621 538.958844,154.570158 509.310571,151.136763 C502.517654,150.349268 493.420541,150.300682 486.929847,158.331507 C484.02729,161.920782 475.796278,157.175571 469.01756,160.635283 C461.774351,164.333876 451.963262,163.020036 443.277902,163.914824 C442.981764,163.94519 442.728221,164.289339 442.42397,164.362218 C423.323074,168.886769 404.88139,175.901341 386.176022,181.221485 C315.344295,201.366365 244.800594,222.12869 176.009379,248.504698 C160.508791,254.448358 145.338822,261.444711 129.497472,266.248631 C108.33781,272.666003 86.6142684,276.826161 68.0062602,290.213568 C61.0490476,295.217904 51.7430151,296.894114 43.6661578,300.455047 C40.6053851,302.094268 37.6878557,303.986984 34.9442878,306.113266 L9.23708303,321.274055 Z M439.220439,327.800886 L444.955112,320.995119 C442.409994,320.664839 440.376754,319.846145 438.702442,320.298529 C434.985939,321.463491 431.332139,322.813039 427.755171,324.341955 L439.583444,327.490623 C437.136215,329.292149 434.815426,332.322717 432.176498,332.628977 C427.157639,333.213472 421.720712,331.16974 416.881316,332.170588 C409.894478,333.613811 403.462344,337.669247 396.473466,339.096457 C342.622191,350.105785 288.534351,360.038201 234.866619,371.830193 C213.716442,376.478131 193.21682,384.398843 172.833442,391.905203 C138.188837,404.662012 101.513031,411.74001 68.1919688,428.173935 C65.3939703,429.553103 61.7353629,429.200805 58.8476327,430.467878 C47.9860146,435.23792 37.1529475,440.10004 26.5523671,445.39853 C16.763451,450.290675 7.53127959,456.277748 -2.386116,460.869639 C-11.9710963,465.303396 -22.2249859,468.275914 -31.9567999,472.411418 C-58.1176781,483.49481 -79.2698942,502.036521 -101.368372,518.924831 C-113.582084,528.254736 -123.88084,540.142809 -134.285642,551.552477 C-139.549145,557.834125 -144.1676,564.610741 -148.073738,571.783619 C-152.594994,579.344026 -148.720214,583.327401 -140.999207,584.194135 C-118.280764,586.734288 -95.5215343,591 -72.7888161,591 C33.9878646,591.043939 139.445081,576.241397 244.708558,560.73826 C303.580731,552.068915 362.175551,541.411885 420.690836,530.612734 C517.507295,512.745595 613.57123,491.57966 708.207616,464.492709 C774.810993,445.428555 840.665926,424.280636 904.8649,398.310631 C913.02233,395.009834 912.180076,391.993278 907.367192,386.774856 C891.345999,369.398132 870.383443,358.382799 848.96815,350.90246 C821.44906,341.294319 792.035406,336.92862 763.506834,330.028773 C761.467477,329.536356 760.145973,326.597866 758.222859,325.134626 C755.93266,323.389147 753.354912,322.007977 750.901565,320.468673 L747.983245,323.945619 L755.891873,325.37483 L754.019743,327.792879 C748.941743,326.918138 743.674082,324.738291 738.818372,325.412862 C723.574175,327.528655 708.949942,322.726586 693.850539,322.690555 C668.154634,322.630505 642.45873,320.408622 616.762825,319.019445 C610.01867,318.655136 603.303065,317.652286 596.556871,317.618258 C590.518333,317.578224 584.471638,318.440955 578.431061,318.933372 C573.944475,319.301684 569.439534,319.657986 564.954987,320.118376 C560.757989,320.550742 555.412833,322.96679 552.604638,321.271353 C544.300374,316.253101 536.718043,319.381752 529.072491,321.411472 C522.44254,323.172964 516.322428,326.001361 512.302854,317.384059 C511.654339,315.994882 508.632011,315.582533 506.623244,315 C506.372403,314.927978 504.940774,316.891642 505.177339,317.340022 C509.225464,324.984499 502.363026,321.467519 500.003489,322.096052 C496.781262,322.844063 493.517577,323.408153 490.228849,323.785483 C484.632852,324.606179 479.032776,325.408859 473.422503,326.123464 C466.621246,326.990199 458.775838,325.971335 453.273651,329.037934 C447.157618,332.444821 443.707025,330.16689 439.220439,327.800886 Z M983.609717,142.68533 C982.052817,144.143177 980.306647,147.015763 978.961403,146.851168 C965.793894,145.228725 952.707791,143.045873 939.566739,141.168699 C937.049467,140.97221 934.520917,140.947328 932,141.094239 C933.449353,143.04791 935.144686,144.82104 937.047206,146.373057 C948.665956,153.723036 960.767039,160.402875 972.096796,168.132992 C1010.35787,194.229239 1033.83959,229.544801 1040.4783,274.359883 C1042.27942,286.520366 1040.75101,299.137406 1040.75101,314 C1068.51471,294.18582 1091.13759,273.585892 1104.15043,245.445916 C1110.48793,231.729612 1111.65204,216.312487 1101.3012,203.164431 C1080.36751,176.597911 1048.71054,167.076837 1018.14238,155.962712 C1006.41373,151.700861 992.069893,153.679927 983.609717,142.68533 Z M633,84.0850983 C497.331952,82.1230794 282.450796,113.494814 35.7000466,240.028576 C-27.1215127,271.844224 -86.3630749,310.390262 -141,355 C92.2365571,188.207833 350.549924,94.9646366 633,84.0850983 Z M-129,484.8265 L-127.798169,487 C-114.718583,478.339568 -101.838623,469.339264 -88.522744,461.081643 C-41.4028262,431.861076 7.47094986,406.039226 58.9317178,386.062328 C104.200001,368.489707 149.561987,350.522667 196.093211,337.223617 C254.53682,320.521655 314.055966,307.642199 373.432521,294.657845 C398.355234,289.203115 424.088674,287.650615 449.473786,284.486872 C464.311304,282.638558 479.183452,281.065078 494.049489,279.451737 C509.027561,277.827906 524.015817,276.304778 539,274.75018 C527.389092,273.399086 515.827071,272.247298 504.554305,273.615177 C470.153425,277.790143 435.815691,282.586109 401.543141,287.772298 C311.874337,301.337791 223.372735,320.632847 137.873672,351.892643 C87.211409,370.417744 37.3843163,391.544331 -12.1148192,413.197509 C-54.1272497,431.346955 -93.4697558,455.456632 -129,484.8265 Z M780,548.625049 L778.299272,546 C766.64838,552.151471 755.249672,558.826766 743.294141,564.345694 C715.654795,577.103276 688.015449,589.906321 659.88384,601.566837 C626.462423,615.421483 592.617337,628.321386 558.729885,641.051294 C553.472357,643.027988 547.43205,648.882955 540.976144,642.419166 C539.777317,643.103312 538.642458,643.889793 537.584776,644.769455 C533.856491,647.394504 530.503455,651.191733 526.345448,652.47856 C462.653904,672.113718 398.901835,691.541323 335.089242,710.761375 C325.776598,713.584093 316.365098,716.098448 307,718.757101 C312.171119,719.359103 317.414094,718.838789 322.356986,717.23307 C390.223349,697.148544 458.070883,676.987586 525.899587,656.750195 C532.609694,654.741875 535.59555,655.216281 534.629182,663.043988 C534.310422,665.627527 536.128163,668.466059 536.969448,671.18599 C538.567936,668.809713 540.032783,666.349679 541.357446,663.816876 C544.052787,657.967839 542.759588,650.881392 551.834171,647.651474 C586.199764,635.423647 620.310483,622.516496 654.166328,608.930021 C676.544111,599.941995 698.284374,589.424008 720.250593,579.465425 C734.550424,572.981869 748.87043,566.518081 762.922112,559.546282 C768.952331,556.549614 774.326873,552.295769 780,548.625049 Z M363,543.549143 L363.592295,546 C392.912907,540.72486 422.300457,535.779907 451.539933,530.111687 C528.747161,515.147113 605.745463,499.221457 681.382704,477.814294 C711.99744,469.1508 742.328199,459.524259 772.660986,449.948818 C788.054561,445.088378 803.156046,439.35923 818.395462,434.044782 C824.253499,432.002729 830.131821,430.021603 836,428.010997 C835.651114,427.006021 835.301552,426.002355 834.951314,425 C681.370534,478.413742 523.33943,515.28076 363,543.539316 L363,543.549143 Z M403.004098,591 C532.248387,571.028495 659.380132,543.226971 781,495 C657.577116,535.835968 531.242645,567.9176 403,590.990089 L403.004098,591 Z M890.874909,98 L891,94.8753709 L802.139214,89 L802,92.7709199 L890.874909,98 Z M272,727.222917 L272.642397,731 L286,724.73557 C285.842678,723.824566 285.685903,722.91271 285.529673,722 L272,727.222917 Z" id="Shape" fill="#04132D" opacity="0.156156994" mask="url(#mask-2)" transform="translate(437.500000, 461.500000) scale(-1, 1) translate(-437.500000, -461.500000) "></path>
                </g>
            </g>
        </g>
    </g>
</svg>