<?xml version="1.0" encoding="UTF-8"?>
<svg width="910px" height="161px" viewBox="0 0 910 161" version="1.1" xmlns="http://www.w3.org/2000/svg" xmlns:xlink="http://www.w3.org/1999/xlink">
    <!-- Generator: Sketch 64 (93537) - https://sketch.com -->
    <title>Headline</title>
    <desc>Created with Sketch.</desc>
    <g id="Page-1" stroke="none" stroke-width="1" fill="none" fill-rule="evenodd">
        <g id="Homepage" transform="translate(-265.000000, -151.000000)" fill="#FFFFFF">
            <g id="Headline" transform="translate(262.000000, 151.000000)">
                <path d="M23.9969286,62 L23.9969286,11.038 L33.9569286,11.038 L33.9569286,2.074 L3.74492857,2.074 L3.74492857,11.038 L13.7049286,11.038 L13.7049286,62 L23.9969286,62 Z M48.8257857,62 L48.8257857,35.44 L59.7817857,35.44 L59.7817857,62 L70.0737857,62 L70.0737857,2.074 L59.7817857,2.074 L59.7817857,26.476 L48.8257857,26.476 L48.8257857,2.074 L38.5337857,2.074 L38.5337857,62 L48.8257857,62 Z M107.269643,62 L107.269643,53.036 L88.8436429,53.036 L88.8436429,35.44 L102.123643,35.44 L102.123643,26.476 L88.8436429,26.476 L88.8436429,11.038 L106.107643,11.038 L106.107643,2.074 L78.5516429,2.074 L78.5516429,62 L107.269643,62 Z M124.2135,62 L124.2135,37.432 C126.0395,37.432 128.1975,37.349 129.5255,37.183 L136.8295,62 L147.2875,62 L138.5725,34.859 C142.0585,33.282 145.7935,29.381 145.7935,19.753 C145.7935,6.971 139.9005,2.074 128.3635,2.074 L113.9215,2.074 L113.9215,62 L124.2135,62 Z M127.8655,28.966 L124.2135,28.966 L124.2135,10.54 L127.8655,10.54 C133.4265,10.54 135.5015,12.615 135.5015,19.753 C135.5015,26.891 133.4265,28.966 127.8655,28.966 Z M182.657357,62 L182.657357,53.036 L164.231357,53.036 L164.231357,35.44 L177.511357,35.44 L177.511357,26.476 L164.231357,26.476 L164.231357,11.038 L181.495357,11.038 L181.495357,2.074 L153.939357,2.074 L153.939357,62 L182.657357,62 Z M217.956071,62 L217.956071,2.074 L207.664071,2.074 L207.664071,62 L217.956071,62 Z M240.626929,62.83 C250.254929,62.83 256.894929,57.352 256.894929,47.475 C256.894929,31.207 235.978929,26.31 235.978929,16.101 C235.978929,12.366 237.804929,10.208 241.124929,10.208 C243.448929,10.208 246.187929,11.702 246.602929,16.848 L256.396929,15.769 C255.483929,7.303 250.503929,1.244 242.120929,1.244 C231.994929,1.244 226.184929,6.639 226.184929,16.184 C226.184929,33.365 247.100929,36.519 247.100929,48.388 C247.100929,51.957 244.693929,53.866 241.124929,53.866 C237.804929,53.866 235.397929,50.878 234.982929,44.819 L225.188929,46.23 C225.603929,55.194 231.081929,62.83 240.626929,62.83 Z M289.454643,62 L289.454643,24.567 L289.620643,24.567 L302.734643,62 L311.698643,62 L311.698643,2.074 L302.402643,2.074 L302.402643,36.353 L302.236643,36.353 L289.703643,2.074 L280.158643,2.074 L280.158643,62 L289.454643,62 Z M335.9465,62.83 C346.7365,62.83 351.7165,55.941 351.7165,47.475 L351.7165,16.599 C351.7165,8.133 346.7365,1.244 335.9465,1.244 C325.1565,1.244 320.1765,8.133 320.1765,16.599 L320.1765,47.475 C320.1765,55.941 325.1565,62.83 335.9465,62.83 Z M335.9465,53.866 C331.7965,53.866 330.4685,51.708 330.4685,47.226 L330.4685,16.848 C330.4685,12.366 331.7965,10.208 335.9465,10.208 C340.0965,10.208 341.4245,12.366 341.4245,16.848 L341.4245,47.226 C341.4245,51.708 340.0965,53.866 335.9465,53.866 Z M383.114214,62 L384.940214,48.72 L396.228214,48.72 L398.054214,62 L408.014214,62 L396.975214,2.074 L384.193214,2.074 L373.154214,62 L383.114214,62 Z M394.734214,39.756 L386.434214,39.756 L390.501214,14.026 L390.667214,14.026 L394.734214,39.756 Z M420.891071,62 L420.891071,15.188 L421.057071,15.188 L430.353071,62 L435.333071,62 L444.629071,15.188 L444.795071,15.188 L444.795071,62 L453.759071,62 L453.759071,2.074 L440.230071,2.074 L432.926071,37.1 L432.760071,37.1 L425.456071,2.074 L411.927071,2.074 L411.927071,62 L420.891071,62 Z M490.456929,62 L490.456929,53.036 L472.030929,53.036 L472.030929,35.44 L485.310929,35.44 L485.310929,26.476 L472.030929,26.476 L472.030929,11.038 L489.294929,11.038 L489.294929,2.074 L461.738929,2.074 L461.738929,62 L490.456929,62 Z M507.400786,62 L507.400786,37.432 C509.226786,37.432 511.384786,37.349 512.712786,37.183 L520.016786,62 L530.474786,62 L521.759786,34.859 C525.245786,33.282 528.980786,29.381 528.980786,19.753 C528.980786,6.971 523.087786,2.074 511.550786,2.074 L497.108786,2.074 L497.108786,62 L507.400786,62 Z M511.052786,28.966 L507.400786,28.966 L507.400786,10.54 L511.052786,10.54 C516.613786,10.54 518.688786,12.615 518.688786,19.753 C518.688786,26.891 516.613786,28.966 511.052786,28.966 Z M548.829643,62 L548.829643,2.074 L538.537643,2.074 L538.537643,62 L548.829643,62 Z M574.4885,62.83 C584.7805,62.83 589.7605,55.941 589.7605,47.475 L589.7605,40.586 L579.4685,40.586 L579.4685,47.807 C579.4685,51.708 578.2235,53.866 574.4885,53.866 C570.3385,53.866 569.0105,51.708 569.0105,47.226 L569.0105,16.848 C569.0105,12.366 570.3385,10.208 574.4885,10.208 C577.1445,10.208 579.4685,12.366 579.4685,17.429 L579.4685,22.077 L589.7605,22.077 L589.7605,17.678 C589.7605,8.714 584.7805,1.244 574.4885,1.244 C563.6985,1.244 558.7185,8.133 558.7185,16.599 L558.7185,47.475 C558.7185,55.941 563.6985,62.83 574.4885,62.83 Z M604.712357,62 L606.538357,48.72 L617.826357,48.72 L619.652357,62 L629.612357,62 L618.573357,2.074 L605.791357,2.074 L594.752357,62 L604.712357,62 Z M616.332357,39.756 L608.032357,39.756 L612.099357,14.026 L612.265357,14.026 L616.332357,39.756 Z M643.402214,62 L643.402214,24.567 L643.568214,24.567 L656.682214,62 L665.646214,62 L665.646214,2.074 L656.350214,2.074 L656.350214,36.353 L656.184214,36.353 L643.651214,2.074 L634.106214,2.074 L634.106214,62 L643.402214,62 Z M697.043929,62 L698.869929,48.72 L710.157929,48.72 L711.983929,62 L721.943929,62 L710.904929,2.074 L698.122929,2.074 L687.083929,62 L697.043929,62 Z M708.663929,39.756 L700.363929,39.756 L704.430929,14.026 L704.596929,14.026 L708.663929,39.756 Z M740.215786,62.83 C745.029786,62.83 747.519786,61.17 750.590786,57.518 L752.499786,62 L757.479786,62 L757.479786,31.622 L740.630786,31.622 L740.630786,39.756 L747.187786,39.756 L747.187786,45.566 C747.187786,51.542 745.693786,53.866 741.543786,53.866 C737.974786,53.866 736.729786,51.376 736.729786,47.558 L736.729786,16.765 C736.729786,11.702 738.804786,10.208 741.294786,10.208 C745.361786,10.208 747.187786,12.532 747.187786,21.496 L756.981786,21.496 L756.981786,17.678 C756.981786,8.714 751.835786,1.244 741.543786,1.244 C731.417786,1.244 726.437786,8.133 726.437786,16.599 L726.437786,47.475 C726.437786,57.02 732.081786,62.83 740.215786,62.83 Z M795.173643,62 L795.173643,53.036 L776.747643,53.036 L776.747643,35.44 L790.027643,35.44 L790.027643,26.476 L776.747643,26.476 L776.747643,11.038 L794.011643,11.038 L794.011643,2.074 L766.455643,2.074 L766.455643,62 L795.173643,62 Z M811.1215,62 L811.1215,24.567 L811.2875,24.567 L824.4015,62 L833.3655,62 L833.3655,2.074 L824.0695,2.074 L824.0695,36.353 L823.9035,36.353 L811.3705,2.074 L801.8255,2.074 L801.8255,62 L811.1215,62 Z M857.115357,62 C867.739357,62 873.383357,56.19 873.383357,43.906 L873.383357,20.168 C873.383357,7.884 867.739357,2.074 857.115357,2.074 L841.843357,2.074 L841.843357,62 L857.115357,62 Z M855.704357,53.534 L852.135357,53.534 L852.135357,10.54 L855.704357,10.54 C861.182357,10.54 863.091357,12.615 863.091357,18.923 L863.091357,45.151 C863.091357,51.459 861.182357,53.534 855.704357,53.534 Z M887.837214,62 L889.663214,48.72 L900.951214,48.72 L902.777214,62 L912.737214,62 L901.698214,2.074 L888.916214,2.074 L877.877214,62 L887.837214,62 Z M899.457214,39.756 L891.157214,39.756 L895.224214,14.026 L895.390214,14.026 L899.457214,39.756 Z M59.5742857,145 L66.5462857,105.409 L66.7122857,105.409 L74.1822857,145 L82.8142857,145 L93.3552857,85.074 L83.7272857,85.074 L78.0002857,123.254 L77.8342857,123.254 L70.8622857,85.074 L62.3962857,85.074 L55.6732857,123.254 L55.5072857,123.254 L49.1992857,85.074 L39.5712857,85.074 L50.9422857,145 L59.5742857,145 Z M110.133143,145 L110.133143,85.074 L99.8411429,85.074 L99.8411429,145 L110.133143,145 Z M136.29,145 L136.29,94.038 L146.25,94.038 L146.25,85.074 L116.038,85.074 L116.038,94.038 L125.998,94.038 L125.998,145 L136.29,145 Z M161.118857,145 L161.118857,118.44 L172.074857,118.44 L172.074857,145 L182.366857,145 L182.366857,85.074 L172.074857,85.074 L172.074857,109.476 L161.118857,109.476 L161.118857,85.074 L150.826857,85.074 L150.826857,145 L161.118857,145 Z M206.614714,145.83 C217.404714,145.83 222.384714,138.941 222.384714,130.475 L222.384714,99.599 C222.384714,91.133 217.404714,84.244 206.614714,84.244 C195.824714,84.244 190.844714,91.133 190.844714,99.599 L190.844714,130.475 C190.844714,138.941 195.824714,145.83 206.614714,145.83 Z M206.614714,136.866 C202.464714,136.866 201.136714,134.708 201.136714,130.226 L201.136714,99.848 C201.136714,95.366 202.464714,93.208 206.614714,93.208 C210.764714,93.208 212.092714,95.366 212.092714,99.848 L212.092714,130.226 C212.092714,134.708 210.764714,136.866 206.614714,136.866 Z M246.632571,145.83 C256.426571,145.83 262.402571,140.186 262.402571,129.894 L262.402571,85.074 L252.110571,85.074 L252.110571,130.309 C252.110571,134.708 250.367571,136.866 246.632571,136.866 C242.897571,136.866 241.154571,134.708 241.154571,130.309 L241.154571,85.074 L230.862571,85.074 L230.862571,129.894 C230.862571,140.186 236.838571,145.83 246.632571,145.83 Z M287.148429,145 L287.148429,94.038 L297.108429,94.038 L297.108429,85.074 L266.896429,85.074 L266.896429,94.038 L276.856429,94.038 L276.856429,145 L287.148429,145 Z M334.897143,145 L334.897143,94.038 L344.857143,94.038 L344.857143,85.074 L314.645143,85.074 L314.645143,94.038 L324.605143,94.038 L324.605143,145 L334.897143,145 Z M359.726,145 L359.726,118.44 L370.682,118.44 L370.682,145 L380.974,145 L380.974,85.074 L370.682,85.074 L370.682,109.476 L359.726,109.476 L359.726,85.074 L349.434,85.074 L349.434,145 L359.726,145 Z M418.169857,145 L418.169857,136.036 L399.743857,136.036 L399.743857,118.44 L413.023857,118.44 L413.023857,109.476 L399.743857,109.476 L399.743857,94.038 L417.007857,94.038 L417.007857,85.074 L389.451857,85.074 L389.451857,145 L418.169857,145 Z M467.744571,145 L467.744571,136.036 L451.559571,136.036 L451.559571,85.074 L441.267571,85.074 L441.267571,145 L467.744571,145 Z M478.546429,145 L480.372429,131.72 L491.660429,131.72 L493.486429,145 L503.446429,145 L492.407429,85.074 L479.625429,85.074 L468.586429,145 L478.546429,145 Z M490.166429,122.756 L481.866429,122.756 L485.933429,97.026 L486.099429,97.026 L490.166429,122.756 Z M521.137286,145 L521.137286,94.038 L531.097286,94.038 L531.097286,85.074 L500.885286,85.074 L500.885286,94.038 L510.845286,94.038 L510.845286,145 L521.137286,145 Z M547.377143,145 L547.377143,85.074 L537.085143,85.074 L537.085143,145 L547.377143,145 Z M566.562,145 L566.562,107.567 L566.728,107.567 L579.842,145 L588.806,145 L588.806,85.074 L579.51,85.074 L579.51,119.353 L579.344,119.353 L566.811,85.074 L557.266,85.074 L557.266,145 L566.562,145 Z M613.053857,145.83 C623.843857,145.83 628.823857,138.941 628.823857,130.475 L628.823857,99.599 C628.823857,91.133 623.843857,84.244 613.053857,84.244 C602.263857,84.244 597.283857,91.133 597.283857,99.599 L597.283857,130.475 C597.283857,138.941 602.263857,145.83 613.053857,145.83 Z M613.053857,136.866 C608.903857,136.866 607.575857,134.708 607.575857,130.226 L607.575857,99.848 C607.575857,95.366 608.903857,93.208 613.053857,93.208 C617.203857,93.208 618.531857,95.366 618.531857,99.848 L618.531857,130.226 C618.531857,134.708 617.203857,136.866 613.053857,136.866 Z M660.221571,145 L662.047571,131.72 L673.335571,131.72 L675.161571,145 L685.121571,145 L674.082571,85.074 L661.300571,85.074 L650.261571,145 L660.221571,145 Z M671.841571,122.756 L663.541571,122.756 L667.608571,97.026 L667.774571,97.026 L671.841571,122.756 Z M703.393429,145.83 C708.207429,145.83 710.697429,144.17 713.768429,140.518 L715.677429,145 L720.657429,145 L720.657429,114.622 L703.808429,114.622 L703.808429,122.756 L710.365429,122.756 L710.365429,128.566 C710.365429,134.542 708.871429,136.866 704.721429,136.866 C701.152429,136.866 699.907429,134.376 699.907429,130.558 L699.907429,99.765 C699.907429,94.702 701.982429,93.208 704.472429,93.208 C708.539429,93.208 710.365429,95.532 710.365429,104.496 L720.159429,104.496 L720.159429,100.678 C720.159429,91.714 715.013429,84.244 704.721429,84.244 C694.595429,84.244 689.615429,91.133 689.615429,99.599 L689.615429,130.475 C689.615429,140.02 695.259429,145.83 703.393429,145.83 Z M758.351286,145 L758.351286,136.036 L739.925286,136.036 L739.925286,118.44 L753.205286,118.44 L753.205286,109.476 L739.925286,109.476 L739.925286,94.038 L757.189286,94.038 L757.189286,85.074 L729.633286,85.074 L729.633286,145 L758.351286,145 Z M774.299143,145 L774.299143,107.567 L774.465143,107.567 L787.579143,145 L796.543143,145 L796.543143,85.074 L787.247143,85.074 L787.247143,119.353 L787.081143,119.353 L774.548143,85.074 L765.003143,85.074 L765.003143,145 L774.299143,145 Z M820.293,145 C830.917,145 836.561,139.19 836.561,126.906 L836.561,103.168 C836.561,90.884 830.917,85.074 820.293,85.074 L805.021,85.074 L805.021,145 L820.293,145 Z M818.882,136.534 L815.313,136.534 L815.313,93.54 L818.882,93.54 C824.36,93.54 826.269,95.615 826.269,101.923 L826.269,128.151 C826.269,134.459 824.36,136.534 818.882,136.534 Z M851.014857,145 L852.840857,131.72 L864.128857,131.72 L865.954857,145 L875.914857,145 L864.875857,85.074 L852.093857,85.074 L841.054857,145 L851.014857,145 Z M862.634857,122.756 L854.334857,122.756 L858.401857,97.026 L858.567857,97.026 L862.634857,122.756 Z" id="THEREISNOAMERICANAGENDAWITHOUTTHELATINOAGENDA" fill-rule="nonzero"></path>
                <path d="M516.359007,143.520038 L516.708669,144.044256 C516.887514,143.182698 516.800409,142.197707 516.483939,141.503002 L516.90925,141.503002 C516.955822,141.368822 517.051431,141.214442 517.038371,141.11056 C516.927731,140.236704 517.131022,139.455667 517.328154,138.798231 C517.55929,138.026332 517.995443,137.475663 517.830099,136.396448 C517.818518,136.320941 517.814822,136.183394 517.836013,136.155981 C518.661501,135.019053 518.726061,132.897174 519.399018,131.563544 C519.620791,131.124933 519.645432,131.7362 519.855377,131.835753 C519.931519,129.946645 519.804369,127.937304 520.695403,126.278564 L521.113075,126.182377 C521.238499,126.056372 521.228643,125.96788 521.132788,125.810615 C521.006014,125.642354 520.924944,125.37137 520.912173,125.073191 C520.899401,124.775011 520.956294,124.481518 521.066995,124.274513 C521.735517,122.911066 521.997948,121.114778 522.422273,119.507978 C523.20513,116.544946 524.149389,113.780538 525.000996,110.906478 C525.858764,108.012219 526.767046,105.196352 527.726337,102.430021 C528.99118,98.7821388 530.213148,95.0837583 531.525056,91.4921451 C532.3742,89.1677923 533.229996,86.8169882 534.011868,84.3776923 C534.757024,82.0538204 535.712125,79.9891719 536.534902,77.7566774 C537.501831,75.1355885 538.611434,72.7333245 539.513802,70.0049874 C539.964001,68.6439449 540.658642,67.6041661 541.160834,66.2460093 C543.024218,61.2053427 545.364905,57.0053483 547.598403,52.6201945 C548.002029,51.8280966 548.390871,50.9850198 549.156479,51.0002021 C548.906862,52.3927128 548.669318,53.6075515 548.161705,54.5804804 C547.417781,56.0054871 546.685685,57.4545405 545.948414,58.8934942 C545.578793,59.6148948 545.132044,60.2367422 544.864192,61.0783762 C544.59634,61.9200103 544.19296,62.4875121 543.921904,63.3099088 C543.654298,64.1222059 543.279256,64.7834897 542.983559,65.5919394 C542.472496,66.9895328 541.819253,68.2058143 541.234019,69.5110684 C540.486891,71.1784657 539.963015,73.1296139 539.216627,74.7878734 C538.452743,76.4836458 537.819459,78.398724 537.112004,80.191645 C536.883824,80.7687655 536.545251,81.1414891 536.566689,82.0672866 C536.575067,82.4279869 536.288241,82.8646747 536.098502,83.1844956 C535.423081,84.3262323 535.01773,85.8512732 534.53673,87.2695468 C534.040945,88.7315854 533.557727,90.2104567 533.060463,91.6710525 C531.634218,95.8604663 530.243457,100.099416 528.760044,104.210919 C527.818495,106.821427 527.16328,109.764742 526.168014,112.298301 C526.143372,113.491016 525.432714,113.763225 525.289301,114.904481 C525.193097,115.852532 524.965147,116.73068 524.63039,117.442849 C524.31453,117.955818 524.052321,118.582863 523.858128,119.289634 C523.692728,120.089716 523.504755,120.871308 523.295072,121.63082 C523.089466,122.410102 522.843757,123.146519 522.561743,123.828687 C522.257668,124.518346 522.170437,125.421059 521.903325,126.08619 C521.751533,126.464204 521.869812,127.204361 521.537892,127.237065 C521.226179,127.268325 521.178867,127.583337 521.217554,128.045995 C521.292957,128.930913 520.99036,129.556608 520.841773,130.275123 C520.637742,130.424693 520.40488,130.116415 520.185818,130.522804 C520.60078,131.988209 519.855377,133.191986 519.911559,134.623726 C519.127962,134.885354 519.454954,136.461855 519.100857,137.231349 C518.734932,138.027294 518.794564,139.171916 518.466341,140.031826 C517.93384,141.426534 517.675598,143.114611 517.29957,144.677165 C516.950794,146.18059 516.562251,147.64765 516.135509,149.072418 C515.95267,149.663486 515.995546,149.952527 516.290257,150.433461 C515.372611,151.173137 515.867164,153.877908 514.722571,154.391545 C514.802902,154.64115 514.97416,154.946062 514.944344,155.115832 C514.670085,156.671652 514.52544,158.318369 514.081894,159.759247 C513.724347,160.917816 513.407212,162.163916 513.420519,163.52592 C513.404451,164.090097 513.293798,164.628318 513.105601,165.057694 C512.314366,167.30125 512.202001,169.951195 511.84199,172.442432 C511.556889,174.41426 511.193674,176.327414 510.86274,178.265577 C510.454678,180.654856 509.965546,182.990751 509.727757,185.496897 C509.582126,187.030595 509.217433,188.478686 509.022766,190.001803 C508.884281,191.084866 508.572567,192.133302 508.708095,193.307261 C508.809371,194.184484 508.347591,194.728901 508.393671,195.651332 C508.410427,195.987986 508.070129,196.70602 508.203686,197.19032 C508.371986,197.797739 507.648022,198.071872 508.123355,198.620136 C507.947661,199.717627 507.872998,200.937275 507.573605,201.886638 C507.073384,203.470834 507.157411,205.275778 506.906562,206.94558 C506.503921,209.62919 506.652016,212.54942 506.097091,215.200327 C506.356319,216.416127 505.572968,217.593453 506.077871,218.877065 C506.198367,219.182939 505.856098,219.612894 505.814701,220.157792 C505.599828,223.062632 505.225525,225.937173 505.334932,228.896358 C505.359574,229.542252 504.885227,230.142457 505.30832,230.772 C504.875617,231.402985 505.094186,232.310987 505.061906,233.100681 C505.030365,233.858632 505.192012,234.770483 505.028147,235.361069 C504.618607,236.833207 505.228235,238.142309 505.068559,239.552407 C504.935249,240.730695 505.232178,242.036911 504.803171,243.163738 C504.739369,243.392869 504.739369,243.669475 504.803171,243.898605 C505.238092,244.84364 505.083836,245.99211 505.032829,247.005918 C504.94338,248.781044 505.411567,250.390249 505.333947,252.144214 C505.324583,252.353901 505.566808,252.606391 505.769607,252.982482 C505.790306,251.296328 506.037705,249.740988 505.638515,248.166411 C505.5655,247.688972 505.545011,247.186805 505.57839,246.69283 C505.573954,243.724988 505.608206,240.755703 505.561633,237.790747 C505.540688,236.449903 505.96452,235.310571 505.85733,233.925001 C505.760982,232.681787 505.660199,231.251971 505.884189,230.152076 C506.130604,228.934352 505.904395,227.65122 506.190236,226.5898 C506.499732,225.438925 506.221777,224.270737 506.366422,223.165071 C506.676657,220.793586 506.612836,218.304754 506.91494,215.968859 C507.164804,214.033582 507.278154,212.047325 507.580258,210.153408 C507.650486,209.713354 507.202998,209.468558 507.57459,209.022733 C507.796363,208.755815 507.642847,208.081546 507.655907,207.593398 C507.667981,207.146129 507.992016,207.03311 507.922527,206.535344 C507.844414,205.97217 508.14701,205.643212 508.165984,205.217104 C508.219702,204.000823 508.29338,202.812436 508.405992,201.601925 C508.6253,199.242464 508.975701,196.95851 509.243799,194.631753 C509.810552,193.900733 509.239857,192.574318 509.681677,191.655735 C510.008176,190.977137 509.924395,189.824339 510.03676,188.903832 C510.41057,185.841246 510.861755,182.805111 511.379963,179.822841 C511.743424,177.729817 512.227874,175.740675 512.382622,173.498081 C512.448415,172.543909 512.739923,171.566651 512.962188,170.680771 C513.606069,168.115471 513.93996,165.358278 514.411103,162.693905 C514.637312,161.414621 514.990423,160.275289 515.252361,159.046503 C515.684079,157.022253 515.896734,154.841699 516.500942,152.924698 C516.895204,151.670903 516.870563,149.960222 517.537113,148.938719 C517.236241,147.513712 518.037334,146.816358 518.119636,145.576511 C518.199967,144.364558 518.698955,143.372872 518.888448,142.141682 C519.090296,141.032246 519.347559,139.964243 519.656521,138.953091 C519.941129,137.912351 520.266396,136.913932 520.57466,135.895315 L521.182563,135.895315 C521.074141,135.297033 520.832409,134.781953 520.950195,134.186076 C521.045064,133.777282 521.254516,133.945609 521.392015,133.785939 C521.431617,133.648943 521.458715,133.499554 521.4721,133.344442 C521.483216,131.659549 521.771388,130.026199 522.294137,128.685156 C523.131945,126.398316 523.614424,123.788289 524.314733,121.386986 C525.135785,118.569677 526.01499,115.813926 526.802284,112.970646 C527.731511,109.616133 528.907153,106.574227 529.839338,103.228371 C530.481739,100.919889 531.319547,98.8196516 532.083431,96.6443883 C533.058738,93.8679578 534.10033,91.173767 535.013788,88.3242345 C535.758205,86.0018055 536.653181,83.9058963 537.447373,81.6613785 C538.226104,79.3602534 539.068101,77.1431099 539.969668,75.0196835 C540.779631,73.1892497 541.452835,71.1313342 542.201687,69.194614 C543.027174,67.060711 543.92905,65.0455986 544.746406,62.894382 C545.29788,61.427682 545.901348,60.0382263 546.552375,58.7362289 C547.681937,56.5043757 548.818563,54.286149 549.962253,52.0815487 C550.106652,51.8016453 550.213349,51.367843 550.515207,51.4664344 C550.856983,52.0882818 550.668723,52.7779408 550.392,53.3901694 C551.00631,53.7157615 551.068653,52.4542723 551.500863,52.4667766 C551.727564,52.51487 551.79656,53.0030177 551.97521,53.2252091 C551.549407,53.5104028 552.052091,54.1630299 551.849046,54.4727513 C551.631463,54.8045955 551.794589,55.5173393 551.485585,55.7111556 C551.516387,56.3166512 551.883544,55.7972428 552.000098,56.5123913 C551.6014,57.5180237 551.165247,58.6765931 550.696075,59.7827407 C550.375736,60.535402 549.989852,61.1447451 549.759701,62.0796803 C549.569962,62.8491742 548.977829,63.1800567 549.095861,64.3573825 C549.117299,64.571398 548.904644,64.5872688 548.816428,64.7036547 C548.204089,65.5116234 547.63709,67.1847919 547.277325,68.9358717 C547.057058,69.8714148 546.777582,70.7493884 546.445431,71.5492656 C545.904552,72.9800435 545.300591,74.3242533 544.810966,75.8411183 C544.707524,76.0945548 544.573031,76.2930376 544.419907,76.4182388 C543.738621,77.0747418 543.252698,78.3127141 543.105288,79.7674614 C543.018057,80.5619639 542.851481,80.7928121 542.37122,81.6820586 C542.149328,82.1530208 541.949585,82.6619747 541.774405,83.2027711 C541.004115,85.2828096 540.359742,87.5273273 539.575159,89.5698529 C539.100073,90.8063336 539.152559,92.5829028 538.420463,93.4841727 C538.563876,94.6475514 538.001559,95.0140229 537.764015,95.7551418 C537.183464,97.5658573 536.397156,99.1803519 536.107866,101.270971 C536.004126,102.018342 535.347925,101.559531 535.553188,102.569492 C534.924586,104.233042 534.576895,106.220741 533.968252,107.8891 C533.734898,108.529223 533.296774,109.057769 533.235417,109.795041 C533.11837,111.196481 532.231279,111.814962 532.365575,113.386173 C531.643828,114.007058 531.632247,115.429179 531.355277,116.594001 C531.141883,117.493828 530.645112,118.018046 530.560838,119.239136 C530.489624,120.265449 530.090926,121.215774 529.814203,122.172832 C529.53748,123.12989 529.095906,123.918622 528.986498,125.065649 C528.333008,125.291207 528.326108,126.541634 528.105321,127.366917 C527.867285,128.255201 527.487561,129.084331 527.480169,130.156332 C527.474255,130.991233 526.701254,130.81954 526.931897,131.99398 C527.074571,132.719709 526.659117,133.270859 526.519647,133.921082 C526.385104,134.546296 526.356767,135.394663 525.822787,135.440832 C525.671243,135.454298 525.502449,135.941484 525.391563,136.274771 C524.952699,137.598782 524.935943,139.448934 524.08335,140.257865 C524.138793,141.219732 523.678985,141.90891 523.646704,142.68129 C523.541486,145.18984 522.760846,147.0953 522.221938,149.173895 C521.822747,150.712883 521.790713,152.634214 521.032744,153.814906 C521.160632,155.149978 520.518231,155.966603 520.439871,157.147777 C520.347959,158.528537 519.764696,159.492329 519.654303,160.838943 C519.543909,162.185558 519.107017,163.282087 518.905204,164.560408 C518.871199,164.774905 518.729018,164.924956 518.59349,165.18947 C518.926889,167.449858 517.693586,169.156692 517.878889,171.815775 C518.13171,170.830823 518.303954,170.159439 518.568849,169.122546 C518.633656,171.474793 517.945421,173.021476 517.7579,174.848543 C517.573336,176.650602 517.098003,178.366573 516.77939,180.143143 C516.460776,181.919712 516.019941,183.630874 515.801865,185.448323 C515.580092,187.304727 515.15626,189.014927 514.942619,190.873255 C514.731195,192.710903 514.388926,194.490839 514.08904,196.390527 L513.503807,196.483828 C512.971799,197.746279 513.261335,199.46177 512.881118,200.815599 C512.826168,201.011339 512.928676,201.404742 512.864855,201.556718 C512.284303,202.93844 512.455807,204.774645 512.092593,206.28093 C511.717551,207.83675 511.898419,209.612839 511.576848,211.20521 C511.203038,213.055362 511.182586,215.087788 510.841795,216.96872 C510.665116,217.943092 510.928286,219.116089 510.527371,220.022649 C510.685076,221.534224 510.366462,222.947688 510.239066,224.380871 C510.083861,225.647245 510.00456,226.944522 510.002755,228.246616 C509.375877,229.218103 510.094667,230.898966 509.496867,231.924317 C509.410622,232.071963 509.472225,232.577425 509.486764,232.914559 C509.571037,235.065295 509.24035,237.112149 509.08092,239.201806 C509.03484,239.809225 509.355918,240.282464 509.226797,240.933168 C508.713763,243.518667 509.080427,246.223439 508.95722,248.858475 C508.909424,249.916177 509.043743,250.97478 509.338915,251.866715 L509.531858,251.556032 C510.246459,251.912885 510.404903,253.018552 510.240298,254.150189 C510.103538,255.090414 509.57498,255.025488 509.121085,254.919683 C508.893645,255.782478 508.709081,256.79821 508.049677,256.467327 C507.676359,256.279763 507.41245,256.72126 507.113303,257.000202 C506.792965,256.653449 506.482237,256.051801 506.156231,256.018135 C505.429309,255.94311 505.087533,254.956715 504.817956,253.998214 C504.551932,252.934085 504.360079,251.805251 504.247507,250.641777 C503.857187,247.410864 504.054811,244.160714 504.019327,240.921144 C503.983597,237.698888 504.021545,234.476632 504.006021,231.254376 C504.0006,230.100135 504.372192,229.126244 504.301718,227.897939 C504.238143,226.807182 504.061464,225.556273 504.533594,224.554007 C504.359625,222.710588 504.899272,221.026839 504.81352,219.167549 C504.704605,216.805684 505.062152,214.509225 505.327047,212.221423 C505.349866,211.717552 505.397732,211.219205 505.469967,210.733414 C505.597406,210.2049 505.628446,209.60724 505.557937,209.039566 C505.459372,207.984878 505.81815,207.176909 505.886654,206.204942 C505.956389,205.211333 506.144403,204.204739 506.083785,203.322225 C506.301615,202.940845 506.534969,203.220267 506.628607,202.594092 C506.194425,201.66637 506.396238,200.592926 506.598544,199.391073 C506.993141,197.037807 507.265566,194.6131 507.411711,192.153501 C507.485097,191.37891 507.602029,190.622478 507.760387,189.897922 C508.103395,188.012661 508.452071,186.133172 508.460449,183.899716 L508.935289,183.215828 C508.961409,182.694496 508.67138,182.77385 508.787441,182.246266 C508.991225,181.309407 509.257352,180.377357 509.228522,179.294295 C509.226109,179.132426 509.23923,178.971104 509.267209,178.818651 C509.350497,178.343008 510.006451,178.212675 509.492678,177.37585 C509.953719,177.01515 509.605289,175.995089 509.92341,175.420373 C510.134587,175.038993 510.157503,174.20842 510.212453,173.666889 C510.279478,173.010895 510.499279,172.512648 510.535009,171.865792 C510.605237,170.599974 511.276223,169.649649 511.031287,168.306882 C511.145377,167.849995 511.358525,168.034674 511.492575,167.852881 C511.39943,167.013171 511.755252,164.713826 512.175635,163.459551 L512.535153,163.796205 C512.563737,163.62884 512.631994,163.442238 512.607845,163.337394 C512.442008,162.61936 512.115017,161.929701 512.569404,161.173192 C512.627312,159.393737 513.060508,157.792228 513.447131,156.296043 C513.74864,155.00701 513.989874,153.667458 514.167893,152.293712 C514.365024,151.005291 514.96455,150.061218 514.960607,148.620821 C515.672497,147.223709 515.672004,145.074416 516.359007,143.520038 Z M524.319234,137.740836 C524.097017,137.24003 524.613248,137.337633 524.353132,136.917847 C524.105962,136.518908 524.253558,135.993939 524.179171,135.552832 C524.141978,135.332042 524.065709,135.315933 524.006859,135.458072 C523.816891,136.026631 524.108787,136.77855 523.855026,137.276987 L523.482624,137.430971 C523.616095,138.278598 524.101254,138.5046 524.20177,139.293949 C524.03699,140.549516 523.547829,140.322566 523.110928,140.350994 C523.063848,140.353837 523.020299,140.536723 522.974631,140.635274 C523.155418,141.131815 523.468971,140.559466 523.605267,140.877859 C523.974374,141.999341 523.261819,141.631199 523.221801,142.552738 C523.245341,142.428603 523.51864,142.386908 523.378577,142.737046 C523.181548,143.05307 522.879765,142.573111 522.706511,143.085762 C522.897185,144.44746 522.722989,145.510665 522.025265,147.241452 L522.200873,147.594906 C522.108361,148.042172 521.792219,147.660291 521.706533,148.134089 C521.607901,148.628736 521.868959,148.804041 521.929928,149.157021 C521.234322,151.452104 521.234322,151.452104 521.200189,152.867815 L520.15219,154.612816 C519.971873,155.392216 520.375348,155.712978 520.415131,156.216152 C520.054263,156.897475 519.708932,157.653184 519.734826,158.652426 C519.7546,159.381603 519.567222,159.862983 519.46341,160.448124 C519.217888,161.827827 518.957772,163.196158 518.725668,164.586284 C518.68265,164.739371 518.680577,164.925644 518.720147,165.082453 C518.759716,165.239262 518.83567,165.345771 518.922462,165.366157 C519.155932,164.659231 519.343351,163.894906 519.480124,163.091922 C519.739041,161.234474 520.07439,159.42367 520.482691,157.678296 C520.913472,155.950351 521.046237,153.959448 521.686524,152.405861 C521.823657,151.943132 521.924869,151.440957 521.986659,150.916711 C522.486917,148.162429 523.080093,145.480166 523.762043,142.888661 C524.117261,141.460631 524.64644,140.121675 524.691872,138.415999 C524.684523,138.26095 524.665802,138.108947 524.636317,137.964943 L524.319234,137.740836 Z" id="Shape" opacity="0.421619234" transform="translate(528.000098, 154.000101) rotate(76.000000) translate(-528.000098, -154.000101) "></path>
                <path d="M344.619838,57.1095083 C344.321228,57.2949346 344.045587,57.5767825 343.72099,57.6546615 C338.148082,58.9939028 332.607194,60.4972463 326.982777,61.5801357 C319.820063,62.9597072 312.594936,64.0210408 305.386978,65.1588628 C303.56051,65.4472006 301.693438,65.4694518 299.852817,65.6819967 C298.690857,65.8161989 297.550707,66.146953 296.388051,66.2670166 C293.356699,66.5806187 290.319779,66.843924 287.281699,67.0826604 C286.752691,67.1243813 286.204426,66.8817046 285.66869,66.8972341 C285.340613,66.9062736 285.022744,67.2701727 284.694203,67.2801393 C281.842899,67.3675215 278.989739,67.4808633 276.138436,67.450268 C272.261368,67.408547 268.369219,67.4338114 264.514194,67.0930906 C258.633627,66.5734335 252.799232,65.6467657 247.785494,62.1609835 C244.501472,59.8779226 241.649704,57.2615579 241.098887,52.9297683 C240.700739,49.798614 241.526965,46.998909 243.179417,44.4430396 C244.426993,42.5129839 245.945801,40.7595467 247.298714,38.8948538 C247.673196,38.3786734 247.835379,37.7127613 248.185266,37.174098 C248.727731,36.3396798 249.243513,35.4466205 249.952104,34.7674968 C253.945878,30.9400667 258.390469,27.6749418 263.062672,24.7380215 C266.521406,22.5641302 270.030256,20.4465622 273.644676,18.5464064 C285.199312,12.4713782 297.203836,7.5058944 309.919736,4.3749718 C318.417034,2.28266809 327.012476,0.694028506 335.745971,0.166954327 C341.018179,-0.151283513 346.324727,0.0788768478 351.616193,0.10275048 C355.901154,0.121988456 360.18565,0.204271364 364.470146,0.252713978 C372.325674,0.341486806 380.083289,1.18262673 387.621413,3.48144895 C391.391751,4.63086005 394.920091,6.27790892 397.734504,9.17774403 C400.970498,12.5117084 402.003686,18.4395546 399.913875,22.5998248 C398.238481,25.9486318 395.737149,28.8161594 392.645591,30.9321861 C391.005436,32.067922 389.304492,33.1341231 387.778491,34.4089287 C386.478015,35.4959902 385.472204,36.9309578 384.189825,38.0437472 C382.185398,39.7821185 380.025052,41.3413217 378.000207,43.058369 C377.351708,43.6081579 376.966322,44.4560195 376.38627,45.1006076 C374.809921,46.8517269 373.368607,48.7836369 371.552813,50.2461866 C368.768563,52.4886856 365.744404,54.441456 362.764097,56.4310799 C361.172202,57.4935725 359.458728,58.3741155 357.800244,59.3367096 C356.596056,59.4062445 355.570756,59.8246125 354.855668,60.846543 C352.922703,61.7203644 350.992058,62.5992849 349.055148,63.4638349 C348.63751,63.6492612 348.198063,63.7836952 347.773465,63.9373672 C346.218771,64.5554548 344.660751,65.1754739 343.099406,65.7974245 C342.584552,66.1430127 342.112854,66.6021745 341.548115,66.817269 C330.200762,71.1508589 318.581226,74.7366567 306.764253,77.5515959 C299.311513,79.3207943 291.885919,81.2369431 284.376102,82.7219757 C277.788104,84.0255224 271.10196,84.8376895 264.453172,85.8267069 C263.390517,85.9847828 262.295379,85.9113076 261.217642,85.9838557 C260.03365,86.0887455 258.861822,85.6789421 258.001834,84.8592453 C257.891778,84.7634174 257.769432,84.6826646 257.638025,84.6191183 C257.297419,84.4438905 256.951476,84.2797882 256.607389,84.1112821 L257.546145,83.424046 C257.47529,83.352029 257.396879,83.2878416 257.312268,83.2325933 C256.980942,83.0645508 256.643816,82.9080974 256.308778,82.7472401 C256.689988,82.5173115 257.059133,82.1096055 257.454265,82.0827187 C270.768778,81.1757524 283.584215,77.6943742 296.437471,74.4700431 C311.472419,70.6984727 326.306901,66.2470832 340.766205,60.6247269 C344.095935,59.3299879 347.387382,57.9279335 350.645186,56.4614435 C353.032817,55.3771613 355.342594,54.1293611 357.558014,52.7269584 C356.387469,53.1221481 355.223189,53.5368076 354.045451,53.9090508 C351.562829,54.6922451 349.071157,55.4422943 346.592943,56.2363823 C346.259761,56.3430025 345.983193,56.6267047 345.681101,56.8283557 L344.619838,57.1095083 Z M272.509378,27.3050106 C271.210952,27.8870322 269.865988,28.3839588 268.622204,29.0656432 C262.94179,32.1545151 257.714989,36.0109356 253.089485,40.5259414 C251.484049,42.1006601 250.259713,44.0599245 248.835566,45.8226382 C247.123973,47.8922801 246.130779,50.4605859 246.0051,53.1419583 C245.965971,53.9371796 246.149575,54.9597062 246.640189,55.5211477 C247.761957,56.8049712 249.307195,57.5442334 251.120545,58 C249.88417,55.7456781 249.362299,53.5024555 250.655631,51.3230542 C251.560857,49.7902821 252.665371,48.3840075 253.940361,47.1409159 C257.799751,43.4163941 262.437548,40.7985689 267.157307,38.3442277 C274.5619,34.4939134 282.333469,31.5345523 290.287253,29.0372011 C300.594318,25.799894 311.103046,23.4926191 321.852798,22.3514683 C325.57489,21.9562856 329.308096,21.6542911 333.043848,21.4061746 C340.622718,20.9072368 348.233426,21.2314795 355.74222,22.3732045 C359.83453,22.9906052 363.862706,23.8299927 367.755436,25.3704884 C371.714616,26.9368825 375.308672,28.8027276 377.245197,32.8498239 C377.480664,33.3421258 377.752944,33.5100033 378.290791,33.229745 C379.576019,32.5603161 380.907091,31.9766759 382.177038,31.2811174 C383.21175,30.7148199 384.40344,30.2243679 385.140635,29.3694876 C386.815817,27.4952406 387.814394,25.1147645 387.977121,22.607678 C388.096359,20.5903733 387.765965,18.5679813 386.596965,16.9796197 C385.195508,15.0758519 383.736399,13.0458292 381.503283,12.0274648 C380.42458,11.5356254 380.000416,10.0721314 378.56284,10.2136479 C378.447074,10.2252098 378.300283,9.85014461 378.153261,9.66631181 C377.698534,9.09723948 376.726567,9.30697073 376.414464,8.51868646 C376.352886,8.5579708 376.2862,8.58862603 376.216273,8.60979353 C375.911578,8.65742819 375.565671,8.80796297 375.30543,8.71778084 C372.18092,7.63513287 369.087666,6.47039603 365.827246,5.81299146 C362.838876,5.21038988 359.868102,4.85891082 356.791981,5.05407419 C354.880461,5.17524197 352.939306,5.81391641 350.976617,5.10540863 C350.598759,4.96897926 350.016458,5.5412889 349.505933,5.60441639 C346.147113,6.02064159 342.788756,6.46900861 339.41697,6.74487342 C336.132703,7.01333867 332.97601,8.26340167 329.591721,7.87122505 C328.816324,7.78127416 327.777907,7.77572449 327.037008,8.69303857 C326.705687,9.10302038 325.766135,8.56100269 324.992358,8.95618539 C324.165561,9.37865396 323.045646,9.22858165 322.05423,9.33078806 C322.020426,9.3342566 321.991485,9.37356676 321.956755,9.38189126 C319.776428,9.89870421 317.671348,10.6999377 315.53617,11.3076265 C307.450876,13.6086581 299.39846,15.9802168 291.546087,18.9929935 C289.776727,19.671903 288.045107,20.4710554 286.23685,21.0197789 C283.821518,21.7527977 281.341822,22.2279882 279.217756,23.7571533 C278.423605,24.3287692 277.361341,24.5202328 276.439385,24.9269773 C276.090004,25.114216 275.756974,25.3304098 275.443801,25.5732825 L272.509378,27.3050106 Z M321.196676,27.4841606 L321.850677,26.6950862 C321.560423,26.6567929 321.328546,26.5618719 321.137602,26.6143222 C320.713759,26.7493903 320.297068,26.9058596 319.889138,27.0831252 L321.238074,27.4481881 C320.958984,27.6570608 320.694313,28.008431 320.393361,28.0439393 C319.820994,28.1117069 319.200948,27.8747525 318.649047,27.9907928 C317.852245,28.158123 317.118703,28.6283185 316.321668,28.7937921 C310.180288,30.070236 304.011929,31.2218204 297.891481,32.5890079 C295.479443,33.1278993 293.141598,34.0462426 290.817009,34.9165453 C286.866022,36.3955956 282.68339,37.216233 278.883344,39.1216156 C278.564251,39.2815192 278.147011,39.240673 277.817685,39.3875801 C276.578989,39.9406284 275.34355,40.5043525 274.134624,41.1186701 C273.018264,41.6858753 271.965396,42.3800287 270.834383,42.9124219 C269.741279,43.4264806 268.571891,43.7711205 267.462043,44.2505992 C264.478568,45.5356301 262.066299,47.6853937 259.546114,49.6434586 C258.153221,50.7251868 256.978717,52.1035141 255.792118,53.4263741 C255.191851,54.1546812 254.665146,54.9403758 254.219677,55.7720139 C253.704058,56.6485827 254.145951,57.1104233 255.026481,57.2109142 C257.617368,57.5054246 260.212907,58 262.805422,58 C274.982593,58.0050944 287.009288,56.2888576 299.013888,54.4913925 C305.727868,53.486251 312.410218,52.2506533 319.083498,50.9985779 C330.124772,48.9270255 341.080225,46.4730041 351.872876,43.332488 C359.468549,41.1221513 366.978866,38.6702186 374.300333,35.6592035 C375.230633,35.2765025 375.13458,34.9267568 374.585702,34.3217224 C372.758592,32.3070298 370.367952,31.0298897 367.92568,30.1626041 C364.78731,29.0486167 361.432879,28.5424487 358.179384,27.7424665 C357.946809,27.6853746 357.796101,27.3446801 357.576782,27.1750291 C357.3156,26.9726548 357.021625,26.8125191 356.741837,26.634049 L356.409022,27.0371732 L357.310949,27.2028788 L357.097445,27.4832323 C356.518333,27.3818131 355.917591,27.1290772 355.363829,27.2072884 C353.62533,27.4525977 351.957533,26.8958361 350.235547,26.8916586 C347.3051,26.8846962 344.374652,26.6270866 341.444205,26.4660226 C340.675079,26.4237839 339.909209,26.3075115 339.13985,26.3035661 C338.451195,26.2989245 337.76161,26.3989513 337.072722,26.4560431 C336.561057,26.498746 336.047298,26.5400563 335.535866,26.5934349 C335.057226,26.6435643 334.447646,26.9236857 334.12739,26.7271134 C333.180344,26.1452871 332.31563,26.5080292 331.443705,26.743359 C330.687604,26.9475901 329.989645,27.2755201 329.53124,26.2764126 C329.457281,26.1153486 329.112604,26.06754 328.883518,26 C328.854911,25.9916496 328.691643,26.2193208 328.718622,26.2713069 C329.180284,27.1576231 328.397668,26.7498573 328.128579,26.8227306 C327.761105,26.9094566 327.388904,26.9748583 327.013846,27.0186068 C326.37566,27.1137598 325.737008,27.2068242 325.097194,27.289677 C324.321556,27.390168 323.426839,27.2720389 322.799351,27.6275865 C322.101858,28.0225879 321.708341,27.75848 321.196676,27.4841606 Z M383.831606,6.19483588 C383.655686,6.36337312 383.458378,6.69546397 383.306373,6.67643557 C381.818519,6.48886993 380.339863,6.23651714 378.854999,6.01950279 C378.570561,5.9967873 378.284849,5.99391077 378,6.01089471 C378.163769,6.23675264 378.355332,6.44173869 378.570306,6.6211626 C379.883159,7.47087117 381.250513,8.24310698 382.530711,9.13676209 C386.853997,12.1536692 389.507299,16.2363932 390.257435,21.4173275 C390.460951,22.8231637 390.28825,24.281781 390.28825,26 C393.425391,23.7093434 395.981649,21.3278488 397.452026,18.0746723 C398.168128,16.4889725 398.299666,14.7066459 397.130079,13.1866394 C394.76469,10.1153654 391.187631,9.01466321 387.733602,7.7297933 C386.408331,7.23709372 384.787559,7.46588755 383.831606,6.19483588 Z M343,0.00973448929 C327.575209,-0.214703089 303.144276,3.37394557 275.089928,17.8482873 C267.947425,21.4877156 261.21195,25.897041 255,31 C281.517851,11.9204533 310.886813,1.25425733 343,0.00973448929 Z M257,45.756243 L257.136735,46 C258.624832,45.0287366 260.090217,44.0193567 261.605197,43.0932684 C266.966146,39.8161955 272.526635,36.920287 278.381453,34.6798873 C283.531737,32.709126 288.692681,30.6941309 293.986653,29.2026486 C300.635926,27.3295314 307.407565,25.8851064 314.162981,24.4289172 C316.9985,23.8171718 319.926256,23.6430597 322.814383,23.2882474 C324.502484,23.0809598 326.194524,22.9044948 327.88587,22.7235593 C329.589962,22.5414474 331.295213,22.3706293 333,22.1962819 C331.678998,22.0447573 330.363559,21.9155849 329.081029,22.0689918 C325.167156,22.5372123 321.260468,23.0750776 317.361196,23.6567063 C307.159356,25.17807 297.090311,27.3420016 287.362873,30.8477731 C281.598903,32.9253545 275.929952,35.2946913 270.298314,37.7230852 C265.518457,39.758537 261.042363,42.4624261 257,45.756243 Z M360,53.3034739 L359.805837,53 C358.475714,53.7111527 357.174381,54.4828631 355.809479,55.1208895 C352.654036,56.5957544 349.498592,58.0758752 346.28695,59.4239118 C342.471397,61.025605 338.607476,62.5169233 334.738718,63.9885889 C334.138493,64.2171084 333.448902,64.8939832 332.711864,64.1467244 C332.575,64.2258164 332.445439,64.316739 332.324689,64.4184341 C331.89905,64.721908 331.516251,65.160894 331.041552,65.3096602 C323.770213,67.5796206 316.491964,69.8255864 309.206806,72.0475578 C308.143629,72.3738836 307.069166,72.6645604 306,72.9719192 C306.59036,73.0415149 307.188924,72.9813629 307.753229,72.7957306 C315.501186,70.4738201 323.246993,68.1430735 330.990651,65.8034908 C331.756709,65.571315 332.097589,65.6261597 331.987264,66.5310969 C331.950873,66.8297719 332.158395,67.1579259 332.25444,67.4723688 C332.436931,67.1976547 332.604166,66.9132577 332.755396,66.620448 C333.063109,65.9442588 332.915471,65.1250164 333.95147,64.7516155 C337.874814,63.3379939 341.769061,61.8458377 345.634211,60.275147 C348.188968,59.2360688 350.670943,58.0201165 353.178715,56.8688352 C354.811253,56.1192912 356.446096,55.3720325 358.050305,54.5660442 C358.738744,54.2196086 359.352328,53.7278346 360,53.3034739 Z M313,52.7164298 L313.067619,53 C316.415004,52.3896532 319.770031,51.8175099 323.108153,51.1616828 C331.922509,49.4302445 340.713013,47.5876066 349.348131,45.1107447 C352.84326,44.108357 356.305968,42.9945424 359.768907,41.8866401 C361.526314,41.3242752 363.250373,40.6613985 364.99018,40.0465037 C365.658962,39.8102331 366.33006,39.5810119 367,39.3483798 C366.960169,39.2321016 366.920262,39.115975 366.880277,39 C349.346742,45.1801023 331.305136,49.4457078 313,52.7152928 L313,52.7164298 Z M317.000466,58 C331.702859,55.7115984 346.164936,52.5260071 360,47 C345.959831,51.6791213 331.588449,55.3551417 317,57.9988643 L317.000466,58 Z M372.985945,2 L373,1.65281899 L363.015642,1 L363,1.4189911 L372.985945,2 Z M302,73.5803241 L302.091771,74 L304,73.3039522 C303.977525,73.2027296 303.955129,73.1014122 303.93281,73 L302,73.5803241 Z" id="Shape" opacity="0.4"></path>
            </g>
        </g>
    </g>
</svg>