<svg xmlns="http://www.w3.org/2000/svg" viewBox="0 0 374.58 203.52"><defs><style>.cls-1{fill:#fff;}</style></defs><g id="Layer_2" data-name="Layer 2"><g id="Layer_1-2" data-name="Layer 1"><path class="cls-1" d="M7.92,7.08H.72V.6H22.56V7.08h-7.2V43.92H7.92Z"/><path class="cls-1" d="M25.57,43.92V.6H33V18.24h7.92V.6h7.44V43.92H40.93V24.72H33v19.2Z"/><path class="cls-1" d="M52.92,43.92V.6H72.84V7.08H60.36V18.24H70v6.48h-9.6V37.44H73.68v6.48Z"/><path class="cls-1" d="M84.82,43.92H77.38V.6H87.82c8.34,0,12.6,3.54,12.6,12.78,0,7-2.7,9.78-5.22,10.92l6.3,19.62H93.94L88.66,26a35.88,35.88,0,0,1-3.84.18Zm0-23.88h2.64c4,0,5.52-1.5,5.52-6.66s-1.5-6.66-5.52-6.66H84.82Z"/><path class="cls-1" d="M105.23,43.92V.6h19.92V7.08H112.67V18.24h9.6v6.48h-9.6V37.44H126v6.48Z"/><path class="cls-1" d="M142.61,43.92V.6h7.44V43.92Z"/><path class="cls-1" d="M169.39,11.28c-.3-3.72-2.28-4.8-4-4.8-2.4,0-3.72,1.56-3.72,4.26,0,7.38,15.12,10.92,15.12,22.68,0,7.14-4.8,11.1-11.76,11.1s-10.86-5.52-11.16-12l7.08-1c.3,4.38,2,6.54,4.44,6.54,2.58,0,4.32-1.38,4.32-4,0-8.58-15.12-10.86-15.12-23.28,0-6.9,4.2-10.8,11.52-10.8,6.06,0,9.66,4.38,10.32,10.5Z"/><path class="cls-1" d="M192.19,43.92V.6h6.9l9.06,24.78h.12V.6H215V43.92H208.5L199,16.86h-.12V43.92Z"/><path class="cls-1" d="M219.41,11.1C219.41,5,223,0,230.81,0s11.4,5,11.4,11.1V33.42c0,6.12-3.6,11.1-11.4,11.1s-11.4-5-11.4-11.1Zm7.44,22.14c0,3.24,1,4.8,4,4.8s4-1.56,4-4.8v-22c0-3.24-1-4.8-4-4.8s-4,1.56-4,4.8Z"/><path class="cls-1" d="M7.92,96.92H.72l8-43.32h9.24l8,43.32h-7.2l-1.32-9.6H9.24Zm2.4-16.08h6l-2.94-18.6h-.12Z"/><path class="cls-1" d="M59,53.6V96.92H52.5V63.08h-.12L45.66,96.92h-3.6L35.34,63.08h-.12V96.92H28.74V53.6h9.78L43.8,78.92h.12L49.2,53.6Z"/><path class="cls-1" d="M63.37,96.92V53.6H83.29v6.48H70.81V71.24h9.6v6.48h-9.6V90.44H84.13v6.48Z"/><path class="cls-1" d="M95.27,96.92H87.83V53.6H98.27c8.34,0,12.6,3.54,12.6,12.78,0,7-2.7,9.78-5.22,10.92L112,96.92h-7.56L99.11,79a35.88,35.88,0,0,1-3.84.18Zm0-23.88h2.64c4,0,5.52-1.5,5.52-6.66s-1.5-6.66-5.52-6.66H95.27Z"/><path class="cls-1" d="M116.15,96.92V53.6h7.44V96.92Z"/><path class="cls-1" d="M143.46,68.06V64.7c0-3.66-1.68-5.22-3.6-5.22-3,0-4,1.56-4,4.8v22c0,3.24,1,4.8,4,4.8,2.7,0,3.6-1.56,3.6-4.38V81.44h7.44v5c0,6.12-3.6,11.1-11,11.1-7.8,0-11.4-5-11.4-11.1V64.1c0-6.12,3.6-11.1,11.4-11.1,7.44,0,11,5.4,11,11.88v3.18Z"/><path class="cls-1" d="M160.47,96.92h-7.2l8-43.32h9.24l8,43.32h-7.2L170,87.32h-8.16Zm2.4-16.08h6l-2.94-18.6h-.12Z"/><path class="cls-1" d="M181.49,96.92V53.6h6.9l9.06,24.78h.12V53.6h6.72V96.92h-6.48l-9.48-27.06h-.12V96.92Z"/><path class="cls-1" d="M225.53,96.92h-7.2l8-43.32h9.24l8,43.32h-7.2L235,87.32h-8.16Zm2.4-16.08h6L231,62.24h-.12Z"/><path class="cls-1" d="M256,75h12.18v22h-3.6l-1.38-3.24c-2.22,2.64-4,3.84-7.5,3.84-5.88,0-10-4.2-10-11.1V64.1c0-6.12,3.6-11.1,10.92-11.1s11.16,5.4,11.16,11.88v2.76h-7.08c0-6.48-1.32-8.16-4.26-8.16-1.8,0-3.3,1.08-3.3,4.74V86.48c0,2.76.9,4.56,3.48,4.56,3,0,4.08-1.68,4.08-6v-4.2H256Z"/><path class="cls-1" d="M272.73,96.92V53.6h19.92v6.48H280.17V71.24h9.6v6.48h-9.6V90.44h13.32v6.48Z"/><path class="cls-1" d="M297.19,96.92V53.6h6.9l9.06,24.78h.12V53.6H320V96.92h-6.48L304,69.86h-.12V96.92Z"/><path class="cls-1" d="M324.54,53.6h11c7.68,0,11.76,4.2,11.76,13.08V83.84c0,8.88-4.08,13.08-11.76,13.08h-11ZM332,90.8h2.58c4,0,5.34-1.5,5.34-6.06v-19c0-4.56-1.38-6.06-5.34-6.06H332Z"/><path class="cls-1" d="M356.58,96.92h-7.2l8-43.32h9.24l8,43.32h-7.2l-1.32-9.6H357.9ZM359,80.84h6L362,62.24h-.12Z"/><path class="cls-1" d="M16.5,106.6h6.12l5,27.6h.12l4.14-27.6h7l-7.62,43.32H25l-5.4-28.62H19.5l-5,28.62H8.22L0,106.6H7l4.56,27.6h.12Z"/><path class="cls-1" d="M42.59,149.92V106.6H50v43.32Z"/><path class="cls-1" d="M60.65,113.08h-7.2V106.6H75.29v6.48h-7.2v36.84H60.65Z"/><path class="cls-1" d="M78.3,149.92V106.6h7.44v17.64h7.92V106.6h7.44v43.32H93.66v-19.2H85.74v19.2Z"/><path class="cls-1" d="M105.53,117.1c0-6.12,3.6-11.1,11.4-11.1s11.4,5,11.4,11.1v22.32c0,6.12-3.6,11.1-11.4,11.1s-11.4-5-11.4-11.1ZM113,139.24c0,3.24,1,4.8,4,4.8s4-1.56,4-4.8v-22c0-3.24-1-4.8-4-4.8s-4,1.56-4,4.8Z"/><path class="cls-1" d="M132.71,106.6h7.44v32.7c0,3.18,1.26,4.74,4,4.74s4-1.56,4-4.74V106.6h7.44V139c0,7.44-4.32,11.52-11.4,11.52s-11.4-4.08-11.4-11.52Z"/><path class="cls-1" d="M165.72,113.08h-7.2V106.6h21.84v6.48h-7.2v36.84h-7.44Z"/><path class="cls-1" d="M198.78,113.08h-7.2V106.6h21.84v6.48h-7.2v36.84h-7.44Z"/><path class="cls-1" d="M216.44,149.92V106.6h7.44v17.64h7.91V106.6h7.44v43.32h-7.44v-19.2h-7.91v19.2Z"/><path class="cls-1" d="M243.78,149.92V106.6H263.7v6.48H251.22v11.16h9.6v6.48h-9.6v12.72h13.32v6.48Z"/><path class="cls-1" d="M3.24,202.92V159.6h7.44v36.84h11.7v6.48Z"/><path class="cls-1" d="M31.35,202.92h-7.2l8-43.32h9.24l8,43.32h-7.2l-1.32-9.6H32.67Zm2.4-16.08h6l-2.94-18.6h-.12Z"/><path class="cls-1" d="M54.65,166.08h-7.2V159.6H69.29v6.48h-7.2v36.84H54.65Z"/><path class="cls-1" d="M72.77,202.92V159.6h7.44v43.32Z"/><path class="cls-1" d="M85.16,202.92V159.6h6.9l9.06,24.78h.11V159.6H108v43.32h-6.49L92,175.86h-.12v27.06Z"/><path class="cls-1" d="M112.38,170.1c0-6.12,3.6-11.1,11.4-11.1s11.4,5,11.4,11.1v22.32c0,6.12-3.6,11.1-11.4,11.1s-11.4-5-11.4-11.1Zm7.44,22.14c0,3.24,1,4.8,4,4.8s4-1.56,4-4.8v-22c0-3.24-1-4.8-4-4.8s-4,1.56-4,4.8Z"/><path class="cls-1" d="M156.42,202.92h-7.2l8-43.32h9.24l8,43.32h-7.2l-1.32-9.6h-8.16Zm2.4-16.08h6l-2.94-18.6h-.12Z"/><path class="cls-1" d="M186.89,181h12.18v22h-3.6l-1.38-3.24c-2.22,2.64-4,3.84-7.5,3.84-5.88,0-10-4.2-10-11.1V170.1c0-6.12,3.6-11.1,10.92-11.1s11.16,5.4,11.16,11.88v2.76h-7.08c0-6.48-1.32-8.16-4.26-8.16-1.8,0-3.3,1.08-3.3,4.74v22.26c0,2.76.9,4.56,3.48,4.56,3,0,4.08-1.68,4.08-6v-4.2h-4.74Z"/><path class="cls-1" d="M203.62,202.92V159.6h19.92v6.48H211.06v11.16h9.6v6.48h-9.6v12.72h13.32v6.48Z"/><path class="cls-1" d="M228.08,202.92V159.6H235L244,184.38h.12V159.6h6.72v43.32H244.4l-9.48-27.06h-.12v27.06Z"/><path class="cls-1" d="M255.43,159.6h11c7.68,0,11.76,4.2,11.76,13.08v17.16c0,8.88-4.08,13.08-11.76,13.08h-11Zm7.44,37.2h2.58c4,0,5.34-1.5,5.34-6.06v-19c0-4.56-1.38-6.06-5.34-6.06h-2.58Z"/><path class="cls-1" d="M287.47,202.92h-7.2l8-43.32h9.24l8,43.32h-7.2l-1.32-9.6h-8.16Zm2.4-16.08h6l-2.94-18.6h-.12Z"/></g></g></svg>