<svg xmlns="http://www.w3.org/2000/svg" viewBox="0 0 629.39 97.52"><defs><style>.cls-1{fill:#fff;}</style></defs><g id="Layer_2" data-name="Layer 2"><g id="Layer_1-2" data-name="Layer 1"><path class="cls-1" d="M7.2,7.08H0V.6H21.84V7.08h-7.2V43.92H7.2Z"/><path class="cls-1" d="M24.85,43.92V.6h7.44V18.24h7.92V.6h7.44V43.92H40.21V24.72H32.29v19.2Z"/><path class="cls-1" d="M52.2,43.92V.6H72.12V7.08H59.64V18.24h9.6v6.48h-9.6V37.44H73v6.48Z"/><path class="cls-1" d="M84.1,43.92H76.66V.6H87.1c8.34,0,12.6,3.54,12.6,12.78,0,7-2.7,9.78-5.22,10.92l6.3,19.62H93.22L87.94,26a35.88,35.88,0,0,1-3.84.18ZM84.1,20h2.64c4,0,5.52-1.5,5.52-6.66s-1.5-6.66-5.52-6.66H84.1Z"/><path class="cls-1" d="M104.51,43.92V.6h19.92V7.08H112V18.24h9.6v6.48H112V37.44h13.32v6.48Z"/><path class="cls-1" d="M141.89,43.92V.6h7.44V43.92Z"/><path class="cls-1" d="M168.67,11.28c-.3-3.72-2.28-4.8-4-4.8-2.4,0-3.72,1.56-3.72,4.26,0,7.38,15.12,10.92,15.12,22.68,0,7.14-4.8,11.1-11.76,11.1s-10.86-5.52-11.16-12l7.08-1c.3,4.38,2,6.54,4.44,6.54,2.58,0,4.32-1.38,4.32-4,0-8.58-15.12-10.86-15.12-23.28,0-6.9,4.2-10.8,11.52-10.8,6.06,0,9.66,4.38,10.32,10.5Z"/><path class="cls-1" d="M191.47,43.92V.6h6.9l9.06,24.78h.12V.6h6.71V43.92h-6.47l-9.48-27.06h-.12V43.92Z"/><path class="cls-1" d="M218.69,11.1c0-6.12,3.6-11.1,11.4-11.1s11.4,5,11.4,11.1V33.42c0,6.12-3.6,11.1-11.4,11.1s-11.4-5-11.4-11.1Zm7.44,22.14c0,3.24,1,4.8,4,4.8s4-1.56,4-4.8v-22c0-3.24-1-4.8-4-4.8s-4,1.56-4,4.8Z"/><path class="cls-1" d="M262.73,43.92h-7.2l8-43.32h9.24l8,43.32h-7.2l-1.32-9.6h-8.16Zm2.4-16.08h6l-2.94-18.6h-.12Z"/><path class="cls-1" d="M313.8.6V43.92h-6.48V10.08h-.12l-6.72,33.84h-3.6l-6.72-33.84H290V43.92h-6.48V.6h9.78l5.28,25.32h.12L304,.6Z"/><path class="cls-1" d="M318.18,43.92V.6H338.1V7.08H325.62V18.24h9.6v6.48h-9.6V37.44h13.32v6.48Z"/><path class="cls-1" d="M350.08,43.92h-7.44V.6h10.44c8.34,0,12.6,3.54,12.6,12.78,0,7-2.7,9.78-5.22,10.92l6.3,19.62H359.2L353.92,26a35.88,35.88,0,0,1-3.84.18Zm0-23.88h2.64c4,0,5.52-1.5,5.52-6.66s-1.5-6.66-5.52-6.66h-2.64Z"/><path class="cls-1" d="M371,43.92V.6h7.44V43.92Z"/><path class="cls-1" d="M398.28,15.06V11.7c0-3.66-1.69-5.22-3.61-5.22-3,0-3.95,1.56-3.95,4.8v22c0,3.24.95,4.8,3.95,4.8,2.71,0,3.61-1.56,3.61-4.38V28.44h7.43v5c0,6.12-3.59,11.1-11,11.1-7.79,0-11.39-5-11.39-11.1V11.1C383.28,5,386.88,0,394.67,0c7.45,0,11,5.4,11,11.88v3.18Z"/><path class="cls-1" d="M415.29,43.92h-7.2l8-43.32h9.24l8,43.32h-7.21l-1.31-9.6h-8.16Zm2.4-16.08h6l-2.94-18.6h-.12Z"/><path class="cls-1" d="M436.3,43.92V.6h6.9l9.06,24.78h.12V.6h6.72V43.92h-6.48l-9.48-27.06H443V43.92Z"/><path class="cls-1" d="M480.34,43.92h-7.2l8-43.32h9.24l8,43.32h-7.2l-1.32-9.6h-8.16Zm2.4-16.08h6L485.8,9.24h-.12Z"/><path class="cls-1" d="M510.81,22H523v22h-3.6L518,40.68c-2.22,2.64-4,3.84-7.5,3.84-5.88,0-10-4.2-10-11.1V11.1C500.55,5,504.15,0,511.47,0s11.16,5.4,11.16,11.88v2.76h-7.08c0-6.48-1.32-8.16-4.26-8.16-1.8,0-3.3,1.08-3.3,4.74V33.48c0,2.76.9,4.56,3.48,4.56,3,0,4.08-1.68,4.08-6v-4.2h-4.74Z"/><path class="cls-1" d="M527.54,43.92V.6h19.92V7.08H535V18.24h9.6v6.48H535V37.44H548.3v6.48Z"/><path class="cls-1" d="M552,43.92V.6h6.9L568,25.38h.12V.6h6.72V43.92h-6.48l-9.48-27.06h-.12V43.92Z"/><path class="cls-1" d="M579.35.6h11c7.68,0,11.76,4.2,11.76,13.08V30.84c0,8.88-4.08,13.08-11.76,13.08h-11Zm7.44,37.2h2.58c4,0,5.34-1.5,5.34-6.06v-19c0-4.56-1.38-6.06-5.34-6.06h-2.58Z"/><path class="cls-1" d="M611.39,43.92h-7.2l8-43.32h9.24l8,43.32h-7.2l-1.32-9.6h-8.16Zm2.4-16.08h6l-2.94-18.6h-.12Z"/><path class="cls-1" d="M39.83,53.6H46l5,27.6h.12l4.14-27.6h7L54.59,96.92H48.35L43,68.3h-.12l-5,28.62H31.55L23.33,53.6h7l4.56,27.6H35Z"/><path class="cls-1" d="M65.92,96.92V53.6h7.44V96.92Z"/><path class="cls-1" d="M84,60.08h-7.2V53.6H98.62v6.48h-7.2V96.92H84Z"/><path class="cls-1" d="M101.63,96.92V53.6h7.44V71.24H117V53.6h7.44V96.92H117V77.72h-7.92v19.2Z"/><path class="cls-1" d="M128.86,64.1c0-6.12,3.6-11.1,11.4-11.1s11.4,5,11.4,11.1V86.42c0,6.12-3.6,11.1-11.4,11.1s-11.4-5-11.4-11.1Zm7.44,22.14c0,3.24,1,4.8,4,4.8s4-1.56,4-4.8v-22c0-3.24-1-4.8-4-4.8s-4,1.56-4,4.8Z"/><path class="cls-1" d="M156,53.6h7.44V86.3c0,3.18,1.26,4.74,4,4.74s4-1.56,4-4.74V53.6h7.44V86c0,7.44-4.32,11.52-11.4,11.52S156,93.44,156,86Z"/><path class="cls-1" d="M189.05,60.08h-7.2V53.6h21.84v6.48h-7.2V96.92h-7.44Z"/><path class="cls-1" d="M222.11,60.08h-7.2V53.6h21.84v6.48h-7.2V96.92h-7.44Z"/><path class="cls-1" d="M239.77,96.92V53.6h7.44V71.24h7.91V53.6h7.45V96.92h-7.45V77.72h-7.91v19.2Z"/><path class="cls-1" d="M267.11,96.92V53.6H287v6.48H274.55V71.24h9.6v6.48h-9.6V90.44h13.32v6.48Z"/><path class="cls-1" d="M303.11,96.92V53.6h7.44V90.44h11.7v6.48Z"/><path class="cls-1" d="M331.22,96.92H324l8-43.32h9.24l8,43.32H342l-1.32-9.6h-8.16Zm2.4-16.08h6l-2.94-18.6h-.12Z"/><path class="cls-1" d="M354.52,60.08h-7.2V53.6h21.84v6.48H362V96.92h-7.44Z"/><path class="cls-1" d="M372.64,96.92V53.6h7.44V96.92Z"/><path class="cls-1" d="M385,96.92V53.6h6.9L401,78.38h.12V53.6h6.72V96.92h-6.48l-9.48-27.06h-.12V96.92Z"/><path class="cls-1" d="M412.26,64.1c0-6.12,3.6-11.1,11.4-11.1s11.4,5,11.4,11.1V86.42c0,6.12-3.6,11.1-11.4,11.1s-11.4-5-11.4-11.1Zm7.44,22.14c0,3.24,1,4.8,4,4.8s4-1.56,4-4.8v-22c0-3.24-1-4.8-4-4.8s-4,1.56-4,4.8Z"/><path class="cls-1" d="M456.3,96.92h-7.2l8-43.32h9.24l8,43.32h-7.2l-1.31-9.6h-8.16Zm2.4-16.08h6l-2.94-18.6h-.12Z"/><path class="cls-1" d="M486.76,75h12.18v22h-3.6L494,93.68c-2.22,2.64-4,3.84-7.5,3.84-5.88,0-10-4.2-10-11.1V64.1c0-6.12,3.6-11.1,10.92-11.1s11.16,5.4,11.16,11.88v2.76H491.5c0-6.48-1.32-8.16-4.26-8.16-1.8,0-3.3,1.08-3.3,4.74V86.48c0,2.76.9,4.56,3.48,4.56,3,0,4.08-1.68,4.08-6v-4.2h-4.74Z"/><path class="cls-1" d="M503.5,96.92V53.6h19.92v6.48H510.94V71.24h9.6v6.48h-9.6V90.44h13.32v6.48Z"/><path class="cls-1" d="M528,96.92V53.6h6.9l9.06,24.78H544V53.6h6.71V96.92h-6.47L534.8,69.86h-.12V96.92Z"/><path class="cls-1" d="M555.3,53.6h11c7.68,0,11.76,4.2,11.76,13.08V83.84c0,8.88-4.08,13.08-11.76,13.08h-11Zm7.45,37.2h2.57c4,0,5.34-1.5,5.34-6.06v-19c0-4.56-1.38-6.06-5.34-6.06h-2.57Z"/><path class="cls-1" d="M587.34,96.92h-7.2l8-43.32h9.24l8,43.32h-7.2l-1.32-9.6h-8.16Zm2.4-16.08h6l-2.94-18.6h-.12Z"/></g></g></svg>